<?xml version="1.0" ?><svg viewBox="0 0 24 24.06" xmlns="http://www.w3.org/2000/svg"><title/><g data-name="Layer 2" id="Layer_2"><g id="Icon"><path d="M19,17.12a2,2,0,0,1-2,2H16v3.44a1.5,1.5,0,0,1-3,0V19.12H11v3.44a1.5,1.5,0,1,1-3,0V19.12H7a2,2,0,0,1-2-2c0-10.3,0-8.86,0-9H19S19,8,19,17.12Z"/><path d="M24,9.59v6a1.5,1.5,0,1,1-3,0v-6a1.5,1.5,0,0,1,3,0Z"/><path d="M3,9.59v6a1.5,1.5,0,0,1-3,0v-6a1.5,1.5,0,0,1,3,0Z"/><path d="M12,0C8,0,6,2.1,5.24,6.09H18.7C18,2.12,15.92,0,12,0ZM9,5a1,1,0,1,1,1-1A1,1,0,0,1,9,5Zm6.1,0a1,1,0,0,1,0-2,1,1,0,0,1,0,2Z"/></g></g></svg>