<?xml version="1.0" ?><svg viewBox="0 0 22.02 23.99" xmlns="http://www.w3.org/2000/svg"><title/><g data-name="Layer 2" id="Layer_2"><g id="Icon"><path d="M0,4,0,16a4,4,0,0,0,4,4H4v4l4-4H18a4,4,0,0,0,4-4L22,4a4,4,0,0,0-4-4H4A4,4,0,0,0,0,4ZM10.43,6.5a4,4,0,0,1,4,4h-2a2,2,0,0,0-2-2Zm3.87,11A12,12,0,0,1,3.46,6.63a1,1,0,0,1,1-1.1h2a1,1,0,0,1,1,.9,7.3,7.3,0,0,0,.38,1.74A1,1,0,0,1,7.35,9.4l-.94.48a10.1,10.1,0,0,0,4.66,4.65l.45-.95a1,1,0,0,1,1.24-.5,7.21,7.21,0,0,0,1.74.41,1,1,0,0,1,.9,1c0,.61,0,1.38,0,2A1,1,0,0,1,14.3,17.47Zm2.13-7a6,6,0,0,0-6-6v-2a8,8,0,0,1,8,8Z"/></g></g></svg>