<?xml version="1.0" ?><svg viewBox="0 0 24 24" xmlns="http://www.w3.org/2000/svg"><title/><g data-name="Layer 2" id="Layer_2"><g id="Icon"><path d="M6.37,12.59v.88H7.43v4.31h.72V13.47H9.21v-.88Z"/><path d="M11,14a25.57,25.57,0,0,1-.05,2.6c-.07.26-.24.49-.51.49-.5,0-.43-.86-.43-1.36V14H9.29V16.4c0,.68.12,1.46.86,1.46a1,1,0,0,0,.86-.64v.56h.64V14Z"/><path d="M13.76,13.94a.89.89,0,0,0-.75.52V12.59h-.68v5.19H13v-.55a1,1,0,0,0,.81.63c.82,0,1.09-1.16,1.09-2S14.6,13.94,13.76,13.94Zm-.15,3.14c-.52,0-.6-.74-.6-1.26s.11-1.12.57-1.12.58.72.58,1.21S14.07,17.08,13.61,17.08Z"/><path d="M16.47,17.12c-.4,0-.55-.53-.56-.93h1.72c0-1-.21-2.25-1.23-2.25s-1.19,1.12-1.19,2,.29,1.93,1.26,1.93c.64,0,1-.48,1.12-1.11l-.68-.17C16.85,16.86,16.76,17.12,16.47,17.12Zm0-2.42c.39,0,.51.49.51.88h-1C15.92,15.2,16.06,14.7,16.44,14.7Z"/><path d="M20,0H4A4,4,0,0,0,0,4V20a4,4,0,0,0,4,4H20a4,4,0,0,0,4-4V4A4,4,0,0,0,20,0ZM13.85,6h.69V7.48c0,.5-.07,1.17.43,1.17a.57.57,0,0,0,.51-.42,19.79,19.79,0,0,0,0-2.23h.68V9.23h-.63V8.75a1,1,0,0,1-.86.55c-.68,0-.87-.57-.87-1.26ZM12,5.93c.71,0,1.34.58,1.34,1.68,0,.87-.49,1.69-1.33,1.69s-1.34-.51-1.34-1.73C10.66,6.71,11.14,5.93,12,5.93ZM8.33,4.77l.84,1.77L10,4.77h.83L9.52,7.36V9.23H8.8V7.35L7.48,4.77ZM19,17.23a2,2,0,0,1-2,2H7a2,2,0,0,1-2-2v-4a2,2,0,0,1,2-2H17a2,2,0,0,1,2,2Z"/><path d="M12,8.61c.47,0,.64-.54.64-1s-.18-1-.64-1-.63.53-.63,1S11.53,8.61,12,8.61Z"/></g></g></svg>