<?xml version="1.0" ?><svg viewBox="0 0 23.99 23.92" xmlns="http://www.w3.org/2000/svg"><title/><g data-name="Layer 2" id="Layer_2"><g id="Icon"><path d="M24,11.94a3,3,0,0,0-5.94-.56A12.5,12.5,0,0,0,13,10c.09-2,.47-4.4,2.42-5.44A3,3,0,1,0,18,0,3,3,0,0,0,15,2.51C11.59,3.92,11,7.93,11,10a12.6,12.6,0,0,0-5,1.39,3,3,0,1,0-3.53,3.52c-2.12,4.84,3.39,9,9.56,9s11.66-4.24,9.57-9A3,3,0,0,0,24,11.94ZM7,15.45A1.5,1.5,0,1,1,8.48,17,1.5,1.5,0,0,1,7,15.45Zm8.58,5.72a8.57,8.57,0,0,1-7.13,0,1,1,0,0,1,.85-1.81,6.57,6.57,0,0,0,5.42,0,1,1,0,0,1,1.24.34h0A1,1,0,0,1,15.56,21.17ZM15.49,17a1.5,1.5,0,1,1,1.5-1.5A1.5,1.5,0,0,1,15.49,17Z"/></g></g></svg>