<?xml version="1.0" ?><svg viewBox="0 0 24 23.65" xmlns="http://www.w3.org/2000/svg"><title/><g data-name="Layer 2" id="Layer_2"><g id="Icon"><path d="M11.52,0A12.12,12.12,0,0,0,0,11.72,12,12,0,0,0,9.17,23.65v-2.4l-1.27,0L5.64,19.53a1,1,0,0,1-.17-1.33h0A.94.94,0,0,1,6.8,18l1.72,1.34.65,0v-1L10,16.31c-3.74-.6-6.5-2.85-6.5-5.53a4.7,4.7,0,0,1,1.9-3.59V4.11l2.74,1.6a12.42,12.42,0,0,1,7.81,0l2.75-1.6v3.1a4.65,4.65,0,0,1,1.89,3.57c0,2.68-2.77,4.93-6.51,5.53l.83,2.1v5.22A12,12,0,0,0,11.52,0Z"/></g></g></svg>