<?xml version="1.0" ?><svg viewBox="0 0 24 24" xmlns="http://www.w3.org/2000/svg"><title/><g data-name="Layer 2" id="Layer_2"><g id="Icon"><path d="M4.61,12.67v3.51c1.47-.17,5.08.72,5.08-1.78C9.69,12.17,6.86,12.75,4.61,12.67Z"/><path d="M9.21,9.33c0-1.88-2.16-1.44-4.6-1.51v3.11C6.61,10.82,9.21,11.42,9.21,9.33Z"/><path d="M18.07,11.25c-1.15,0-1.69.9-1.81,2.05h3.63C19.79,11.85,19.05,11.25,18.07,11.25Z"/><path d="M22,0H2A2,2,0,0,0,0,2V22a2,2,0,0,0,2,2H22a2,2,0,0,0,2-2V2A2,2,0,0,0,22,0ZM16,6h4a1,1,0,1,1,0,2H16a1,1,0,1,1,0-2ZM3.65,18c-1,0-1.47-.4-1.47-1.49v-9C2.18,6.43,2.61,6,3.65,6c3.27,0,7.94-.74,7.94,3a2.77,2.77,0,0,1-1.8,2.64,2.93,2.93,0,0,1,2.37,2.93C12.16,18.71,7.26,18,3.65,18Zm14.57-1.33c1,0,1.55-.53,2.36-1.29a.8.8,0,0,1,.94,0c.31.28.19.74,0,1.11A3.67,3.67,0,0,1,18.28,18a3.75,3.75,0,0,1-4.06-4.08,3.72,3.72,0,0,1,3.92-4.07,3.43,3.43,0,0,1,3.68,3.37c0,.74-.24,1.2-1.65,1.2H16.26A2,2,0,0,0,18.22,16.68Z"/></g></g></svg>