<?xml version="1.0" ?><svg viewBox="0 0 24.02 24.01" xmlns="http://www.w3.org/2000/svg"><title/><g data-name="Layer 2" id="Layer_2"><g id="Icon"><path d="M17.21,4.53c-1,1.06-6.27,2.64-6.27,2.64s1.4-5.29,2.42-6.35a2.67,2.67,0,0,1,3.85,3.71Z"/><path d="M1.73,6.55c1.44.75,7.44.57,7.44.57s-3.29-5-4.72-5.76A2.93,2.93,0,1,0,1.73,6.55Z"/><path d="M20,22.34A11,11,0,0,1,12.4,8.72c-1.37.8-3.32,2.93-5.27,5.36A9,9,0,0,0,12,23.8c3.33-.2,6.43-.6,7.85-1.34Z"/><path d="M5,16.81C2.28,20.48,0,24,0,24s4.11.13,8.66,0A11,11,0,0,1,5,16.81Z"/><path d="M22,20.7A7.8,7.8,0,0,0,14.87,7.85,9,9,0,0,0,22,20.7Z"/></g></g></svg>