<?xml version="1.0" ?><svg viewBox="0 0 24 24" xmlns="http://www.w3.org/2000/svg"><title/><g data-name="Layer 2" id="Layer_2"><g id="Icon"><path d="M12,0A12,12,0,1,0,24,12,12,12,0,0,0,12,0Zm0,21a9,9,0,1,1,9-9A9,9,0,0,1,12,21Z"/><path d="M9.51,7.9v.34c-1.35,0-1.28.4-.95,1.49l2.22,6.66,1.65-5.87c-.81-1.37,0-2.18-2.24-2.28V7.9h4.69v.34c-1.37,0-1.64.08-1.22,1.41L16,16.41l1.36-4.84c-2.74-1.52-1.53-4.82.39-3.62a7,7,0,0,0-11.36,0Z"/><path d="M7,9.66A1.76,1.76,0,0,0,6,8.42a7,7,0,0,0,4,10.3Z"/><path d="M12.63,11l-2.18,7.8a6.87,6.87,0,0,0,4.6-.53Z"/><path d="M18.32,9c0,.45.17-.63-2.39,8.78A7,7,0,0,0,18.32,9Z"/></g></g></svg>