<?xml version="1.0" encoding="UTF-8" standalone="no"?>
<!-- Created with Inkscape (http://www.inkscape.org/) -->

<svg
   xmlns:dc="http://purl.org/dc/elements/1.1/"
   xmlns:cc="http://creativecommons.org/ns#"
   xmlns:rdf="http://www.w3.org/1999/02/22-rdf-syntax-ns#"
   xmlns:svg="http://www.w3.org/2000/svg"
   xmlns="http://www.w3.org/2000/svg"
   xmlns:xlink="http://www.w3.org/1999/xlink"
   xmlns:sodipodi="http://sodipodi.sourceforge.net/DTD/sodipodi-0.dtd"
   xmlns:inkscape="http://www.inkscape.org/namespaces/inkscape"
   width="1281.0291"
   height="92.569"
   viewBox="0 0 1281.0291 92.569"
   version="1.1"
   id="SVGRoot"
   inkscape:version="0.92.0 r15299"
   sodipodi:docname="jm logo 3 pattern making (clean).svg"
   style="enable-background:new">
  <sodipodi:namedview
     id="base"
     pagecolor="#ffffff"
     bordercolor="#666666"
     borderopacity="1.0"
     inkscape:pageopacity="0.0"
     inkscape:pageshadow="2"
     inkscape:zoom="0.42678945"
     inkscape:cx="605.42393"
     inkscape:cy="187.27388"
     inkscape:document-units="px"
     inkscape:current-layer="layer1"
     showgrid="false"
     inkscape:window-width="1366"
     inkscape:window-height="705"
     inkscape:window-x="-8"
     inkscape:window-y="-8"
     inkscape:window-maximized="1">
    <inkscape:grid
       type="xygrid"
       id="grid4790" />
  </sodipodi:namedview>
  <defs
     id="defs4485">
    <linearGradient
       inkscape:collect="always"
       id="linearGradient4842">
      <stop
         style="stop-color:#424242;stop-opacity:1"
         offset="0"
         id="stop4838" />
      <stop
         style="stop-color:#000000;stop-opacity:0;"
         offset="1"
         id="stop4840" />
    </linearGradient>
    <inkscape:path-effect
       effect="bounding_box"
       id="path-effect6110"
       is_visible="false"
       linkedpath=""
       visualbounds="false" />
    <clipPath
       clipPathUnits="userSpaceOnUse"
       id="clipPath5115">
      <g
         inkscape:label="Clip"
         id="use5117">
        <path
           inkscape:connector-curvature="0"
           id="path5160"
           d="m 932.2538,563.5557 v 37.3333 136.88884 c 0,13.8932 -10.9958,24.8889 -24.88893,24.8889 -13.8932,0 -24.8889,-10.9957 -24.8889,-24.8889 h -24.8889 c 0,27.3441 22.43371,49.7778 49.7778,49.7778 27.34413,0 49.77782,-22.4337 49.77782,-49.7778 V 600.889 c 0,-7.0203 5.4241,-12.4445 12.4444,-12.4445 7.0203,0 12.4445,5.4242 12.4445,12.4445 v 136.88884 h 24.88881 V 600.889 c 0,-7.0203 5.4242,-12.4445 12.4445,-12.4445 7.0202,0 12.4444,5.4242 12.4444,12.4445 v 136.88884 h 24.8889 V 600.889 c 0,-20.4712 -16.8621,-37.3333 -37.3333,-37.3333 -9.523,0 -18.2621,3.652 -24.88891,9.6158 -6.6268,-5.9638 -15.3659,-9.6158 -24.8889,-9.6158 -9.523,0 -18.2621,3.652 -24.8889,9.6158 v -9.6158 z"
           style="color:#000000;font-style:normal;font-variant:normal;font-weight:normal;font-stretch:normal;font-size:medium;line-height:normal;font-family:sans-serif;font-variant-ligatures:normal;font-variant-position:normal;font-variant-caps:normal;font-variant-numeric:normal;font-variant-alternates:normal;font-feature-settings:normal;text-indent:0;text-align:start;text-decoration:none;text-decoration-line:none;text-decoration-style:solid;text-decoration-color:#000000;letter-spacing:normal;word-spacing:normal;text-transform:none;writing-mode:lr-tb;direction:ltr;text-orientation:mixed;dominant-baseline:auto;baseline-shift:baseline;text-anchor:start;white-space:normal;shape-padding:0;clip-rule:nonzero;display:inline;overflow:visible;visibility:visible;opacity:1;isolation:auto;mix-blend-mode:normal;color-interpolation:sRGB;color-interpolation-filters:linearRGB;solid-color:#000000;solid-opacity:1;vector-effect:none;fill:#010101;fill-opacity:1;fill-rule:nonzero;stroke:none;stroke-width:24.88888741;stroke-linecap:butt;stroke-linejoin:miter;stroke-miterlimit:3.5999999;stroke-dasharray:none;stroke-dashoffset:0;stroke-opacity:1;paint-order:normal;color-rendering:auto;image-rendering:auto;shape-rendering:auto;text-rendering:auto;enable-background:accumulate" />
        <path
           inkscape:connector-curvature="0"
           id="path5162"
           d="M 808.03172,911.99999 V 874.66669 737.7778 c 0,-13.8932 10.9958,-24.8889 24.889,-24.8889 13.89318,0 24.88888,10.9957 24.88888,24.8889 h 24.8889 C 882.6985,710.4337 860.2648,688 832.92072,688 c -27.3442,0 -49.7778,22.4337 -49.7778,49.7778 v 136.88889 c 0,7.0203 -5.4241,12.4445 -12.4444,12.4445 -7.0203,0 -12.4445,-5.4242 -12.4445,-12.4445 V 737.7778 h -24.8889 v 136.88889 c 0,7.0203 -5.4242,12.4445 -12.4445,12.4445 -7.02023,0 -12.44443,-5.4242 -12.44443,-12.4445 V 737.7778 h -24.8889 v 136.88889 c 0,20.4712 16.8621,37.3333 37.33333,37.3333 9.523,0 18.2621,-3.652 24.889,-9.6158 6.6268,5.9638 15.3659,9.6158 24.8889,9.6158 9.523,0 18.26211,-3.652 24.88891,-9.6158 v 9.6158 z"
           style="color:#000000;font-style:normal;font-variant:normal;font-weight:normal;font-stretch:normal;font-size:medium;line-height:normal;font-family:sans-serif;font-variant-ligatures:normal;font-variant-position:normal;font-variant-caps:normal;font-variant-numeric:normal;font-variant-alternates:normal;font-feature-settings:normal;text-indent:0;text-align:start;text-decoration:none;text-decoration-line:none;text-decoration-style:solid;text-decoration-color:#000000;letter-spacing:normal;word-spacing:normal;text-transform:none;writing-mode:lr-tb;direction:ltr;text-orientation:mixed;dominant-baseline:auto;baseline-shift:baseline;text-anchor:start;white-space:normal;shape-padding:0;clip-rule:nonzero;display:inline;overflow:visible;visibility:visible;opacity:1;isolation:auto;mix-blend-mode:normal;color-interpolation:sRGB;color-interpolation-filters:linearRGB;solid-color:#000000;solid-opacity:1;vector-effect:none;fill:#010101;fill-opacity:1;fill-rule:nonzero;stroke:none;stroke-width:24.88888741;stroke-linecap:butt;stroke-linejoin:miter;stroke-miterlimit:3.5999999;stroke-dasharray:none;stroke-dashoffset:0;stroke-opacity:1;paint-order:normal;color-rendering:auto;image-rendering:auto;shape-rendering:auto;text-rendering:auto;enable-background:accumulate" />
        <path
           inkscape:connector-curvature="0"
           id="path5164"
           d="M 932.25383,912 V 874.66672 737.77784 c 0,-13.8932 -10.99583,-24.8889 -24.88903,-24.8889 -13.8932,0 -24.8889,10.9957 -24.8889,24.8889 H 857.587 c 0,-27.3441 22.4337,-49.77783 49.7778,-49.77783 27.34423,0 49.77793,22.43373 49.77793,49.77783 v 136.88888 c 0,7.0203 5.4241,12.4445 12.4444,12.4445 7.0203,0 12.4445,-5.4242 12.4445,-12.4445 V 737.77784 h 24.88877 v 136.88888 c 0,7.0203 5.4242,12.4445 12.4445,12.4445 7.0202,0 12.4444,-5.4242 12.4444,-12.4445 V 737.77784 h 24.8889 v 136.88888 c 0,20.4712 -16.8621,37.33328 -37.3333,37.33328 -9.523,0 -18.2621,-3.65198 -24.88887,-9.61578 -6.6268,5.9638 -15.3659,9.61578 -24.8889,9.61578 -9.523,0 -18.2621,-3.65198 -24.8889,-9.61578 V 912 Z"
           style="color:#000000;font-style:normal;font-variant:normal;font-weight:normal;font-stretch:normal;font-size:medium;line-height:normal;font-family:sans-serif;font-variant-ligatures:normal;font-variant-position:normal;font-variant-caps:normal;font-variant-numeric:normal;font-variant-alternates:normal;font-feature-settings:normal;text-indent:0;text-align:start;text-decoration:none;text-decoration-line:none;text-decoration-style:solid;text-decoration-color:#000000;letter-spacing:normal;word-spacing:normal;text-transform:none;writing-mode:lr-tb;direction:ltr;text-orientation:mixed;dominant-baseline:auto;baseline-shift:baseline;text-anchor:start;white-space:normal;shape-padding:0;clip-rule:nonzero;display:inline;overflow:visible;visibility:visible;opacity:1;isolation:auto;mix-blend-mode:normal;color-interpolation:sRGB;color-interpolation-filters:linearRGB;solid-color:#000000;solid-opacity:1;vector-effect:none;fill:#010101;fill-opacity:1;fill-rule:nonzero;stroke:none;stroke-width:24.88888741;stroke-linecap:butt;stroke-linejoin:miter;stroke-miterlimit:3.5999999;stroke-dasharray:none;stroke-dashoffset:0;stroke-opacity:1;paint-order:normal;color-rendering:auto;image-rendering:auto;shape-rendering:auto;text-rendering:auto;enable-background:accumulate" />
        <path
           inkscape:connector-curvature="0"
           id="path5166"
           d="m 808.03182,563.55566 v 37.3333 136.88884 c 0,13.8932 10.9958,24.8889 24.8889,24.8889 13.8932,0 24.8889,-10.9957 24.8889,-24.8889 h 24.8889 c 0,27.3441 -22.4337,49.7778 -49.7778,49.7778 -27.3441,0 -49.7778,-22.4337 -49.7778,-49.7778 V 600.88896 c 0,-7.0203 -5.4241,-12.4445 -12.4444,-12.4445 -7.0203,0 -12.4445,5.4242 -12.4445,12.4445 V 737.7778 h -24.8888 V 600.88896 c 0,-7.0203 -5.4242,-12.4445 -12.4445,-12.4445 -7.0202,0 -12.4444,5.4242 -12.4444,12.4445 V 737.7778 h -24.8889 V 600.88896 c 0,-20.4712 16.8621,-37.3333 37.3333,-37.3333 9.523,0 18.2621,3.652 24.8889,9.6158 6.6268,-5.9638 15.3659,-9.6158 24.8889,-9.6158 9.523,0 18.2621,3.652 24.8889,9.6158 v -9.6158 z"
           style="color:#000000;font-style:normal;font-variant:normal;font-weight:normal;font-stretch:normal;font-size:medium;line-height:normal;font-family:sans-serif;font-variant-ligatures:normal;font-variant-position:normal;font-variant-caps:normal;font-variant-numeric:normal;font-variant-alternates:normal;font-feature-settings:normal;text-indent:0;text-align:start;text-decoration:none;text-decoration-line:none;text-decoration-style:solid;text-decoration-color:#000000;letter-spacing:normal;word-spacing:normal;text-transform:none;writing-mode:lr-tb;direction:ltr;text-orientation:mixed;dominant-baseline:auto;baseline-shift:baseline;text-anchor:start;white-space:normal;shape-padding:0;clip-rule:nonzero;display:inline;overflow:visible;visibility:visible;opacity:1;isolation:auto;mix-blend-mode:normal;color-interpolation:sRGB;color-interpolation-filters:linearRGB;solid-color:#000000;solid-opacity:1;vector-effect:none;fill:#010101;fill-opacity:1;fill-rule:nonzero;stroke:none;stroke-width:24.88888741;stroke-linecap:butt;stroke-linejoin:miter;stroke-miterlimit:3.5999999;stroke-dasharray:none;stroke-dashoffset:0;stroke-opacity:1;paint-order:normal;color-rendering:auto;image-rendering:auto;shape-rendering:auto;text-rendering:auto;enable-background:accumulate" />
      </g>
    </clipPath>
    <clipPath
       clipPathUnits="userSpaceOnUse"
       id="clipPath5115-4">
      <g
         inkscape:label="Clip"
         id="use5117-7">
        <path
           inkscape:connector-curvature="0"
           id="path5230"
           d="m 932.2538,563.5557 v 37.3333 136.88884 c 0,13.8932 -10.9958,24.8889 -24.88893,24.8889 -13.8932,0 -24.8889,-10.9957 -24.8889,-24.8889 h -24.8889 c 0,27.3441 22.43371,49.7778 49.7778,49.7778 27.34413,0 49.77782,-22.4337 49.77782,-49.7778 V 600.889 c 0,-7.0203 5.4241,-12.4445 12.4444,-12.4445 7.0203,0 12.4445,5.4242 12.4445,12.4445 v 136.88884 h 24.88881 V 600.889 c 0,-7.0203 5.4242,-12.4445 12.4445,-12.4445 7.0202,0 12.4444,5.4242 12.4444,12.4445 v 136.88884 h 24.8889 V 600.889 c 0,-20.4712 -16.8621,-37.3333 -37.3333,-37.3333 -9.523,0 -18.2621,3.652 -24.88891,9.6158 -6.6268,-5.9638 -15.3659,-9.6158 -24.8889,-9.6158 -9.523,0 -18.2621,3.652 -24.8889,9.6158 v -9.6158 z"
           style="color:#000000;font-style:normal;font-variant:normal;font-weight:normal;font-stretch:normal;font-size:medium;line-height:normal;font-family:sans-serif;font-variant-ligatures:normal;font-variant-position:normal;font-variant-caps:normal;font-variant-numeric:normal;font-variant-alternates:normal;font-feature-settings:normal;text-indent:0;text-align:start;text-decoration:none;text-decoration-line:none;text-decoration-style:solid;text-decoration-color:#000000;letter-spacing:normal;word-spacing:normal;text-transform:none;writing-mode:lr-tb;direction:ltr;text-orientation:mixed;dominant-baseline:auto;baseline-shift:baseline;text-anchor:start;white-space:normal;shape-padding:0;clip-rule:nonzero;display:inline;overflow:visible;visibility:visible;opacity:1;isolation:auto;mix-blend-mode:normal;color-interpolation:sRGB;color-interpolation-filters:linearRGB;solid-color:#000000;solid-opacity:1;vector-effect:none;fill:#010101;fill-opacity:1;fill-rule:nonzero;stroke:none;stroke-width:24.88888741;stroke-linecap:butt;stroke-linejoin:miter;stroke-miterlimit:3.5999999;stroke-dasharray:none;stroke-dashoffset:0;stroke-opacity:1;paint-order:normal;color-rendering:auto;image-rendering:auto;shape-rendering:auto;text-rendering:auto;enable-background:accumulate" />
        <path
           inkscape:connector-curvature="0"
           id="path5232"
           d="M 808.03172,911.99999 V 874.66669 737.7778 c 0,-13.8932 10.9958,-24.8889 24.889,-24.8889 13.89318,0 24.88888,10.9957 24.88888,24.8889 h 24.8889 C 882.6985,710.4337 860.2648,688 832.92072,688 c -27.3442,0 -49.7778,22.4337 -49.7778,49.7778 v 136.88889 c 0,7.0203 -5.4241,12.4445 -12.4444,12.4445 -7.0203,0 -12.4445,-5.4242 -12.4445,-12.4445 V 737.7778 h -24.8889 v 136.88889 c 0,7.0203 -5.4242,12.4445 -12.4445,12.4445 -7.02023,0 -12.44443,-5.4242 -12.44443,-12.4445 V 737.7778 h -24.8889 v 136.88889 c 0,20.4712 16.8621,37.3333 37.33333,37.3333 9.523,0 18.2621,-3.652 24.889,-9.6158 6.6268,5.9638 15.3659,9.6158 24.8889,9.6158 9.523,0 18.26211,-3.652 24.88891,-9.6158 v 9.6158 z"
           style="color:#000000;font-style:normal;font-variant:normal;font-weight:normal;font-stretch:normal;font-size:medium;line-height:normal;font-family:sans-serif;font-variant-ligatures:normal;font-variant-position:normal;font-variant-caps:normal;font-variant-numeric:normal;font-variant-alternates:normal;font-feature-settings:normal;text-indent:0;text-align:start;text-decoration:none;text-decoration-line:none;text-decoration-style:solid;text-decoration-color:#000000;letter-spacing:normal;word-spacing:normal;text-transform:none;writing-mode:lr-tb;direction:ltr;text-orientation:mixed;dominant-baseline:auto;baseline-shift:baseline;text-anchor:start;white-space:normal;shape-padding:0;clip-rule:nonzero;display:inline;overflow:visible;visibility:visible;opacity:1;isolation:auto;mix-blend-mode:normal;color-interpolation:sRGB;color-interpolation-filters:linearRGB;solid-color:#000000;solid-opacity:1;vector-effect:none;fill:#010101;fill-opacity:1;fill-rule:nonzero;stroke:none;stroke-width:24.88888741;stroke-linecap:butt;stroke-linejoin:miter;stroke-miterlimit:3.5999999;stroke-dasharray:none;stroke-dashoffset:0;stroke-opacity:1;paint-order:normal;color-rendering:auto;image-rendering:auto;shape-rendering:auto;text-rendering:auto;enable-background:accumulate" />
        <path
           inkscape:connector-curvature="0"
           id="path5234"
           d="M 932.25383,912 V 874.66672 737.77784 c 0,-13.8932 -10.99583,-24.8889 -24.88903,-24.8889 -13.8932,0 -24.8889,10.9957 -24.8889,24.8889 H 857.587 c 0,-27.3441 22.4337,-49.77783 49.7778,-49.77783 27.34423,0 49.77793,22.43373 49.77793,49.77783 v 136.88888 c 0,7.0203 5.4241,12.4445 12.4444,12.4445 7.0203,0 12.4445,-5.4242 12.4445,-12.4445 V 737.77784 h 24.88877 v 136.88888 c 0,7.0203 5.4242,12.4445 12.4445,12.4445 7.0202,0 12.4444,-5.4242 12.4444,-12.4445 V 737.77784 h 24.8889 v 136.88888 c 0,20.4712 -16.8621,37.33328 -37.3333,37.33328 -9.523,0 -18.2621,-3.65198 -24.88887,-9.61578 -6.6268,5.9638 -15.3659,9.61578 -24.8889,9.61578 -9.523,0 -18.2621,-3.65198 -24.8889,-9.61578 V 912 Z"
           style="color:#000000;font-style:normal;font-variant:normal;font-weight:normal;font-stretch:normal;font-size:medium;line-height:normal;font-family:sans-serif;font-variant-ligatures:normal;font-variant-position:normal;font-variant-caps:normal;font-variant-numeric:normal;font-variant-alternates:normal;font-feature-settings:normal;text-indent:0;text-align:start;text-decoration:none;text-decoration-line:none;text-decoration-style:solid;text-decoration-color:#000000;letter-spacing:normal;word-spacing:normal;text-transform:none;writing-mode:lr-tb;direction:ltr;text-orientation:mixed;dominant-baseline:auto;baseline-shift:baseline;text-anchor:start;white-space:normal;shape-padding:0;clip-rule:nonzero;display:inline;overflow:visible;visibility:visible;opacity:1;isolation:auto;mix-blend-mode:normal;color-interpolation:sRGB;color-interpolation-filters:linearRGB;solid-color:#000000;solid-opacity:1;vector-effect:none;fill:#010101;fill-opacity:1;fill-rule:nonzero;stroke:none;stroke-width:24.88888741;stroke-linecap:butt;stroke-linejoin:miter;stroke-miterlimit:3.5999999;stroke-dasharray:none;stroke-dashoffset:0;stroke-opacity:1;paint-order:normal;color-rendering:auto;image-rendering:auto;shape-rendering:auto;text-rendering:auto;enable-background:accumulate" />
        <path
           inkscape:connector-curvature="0"
           id="path5236"
           d="m 808.03182,563.55566 v 37.3333 136.88884 c 0,13.8932 10.9958,24.8889 24.8889,24.8889 13.8932,0 24.8889,-10.9957 24.8889,-24.8889 h 24.8889 c 0,27.3441 -22.4337,49.7778 -49.7778,49.7778 -27.3441,0 -49.7778,-22.4337 -49.7778,-49.7778 V 600.88896 c 0,-7.0203 -5.4241,-12.4445 -12.4444,-12.4445 -7.0203,0 -12.4445,5.4242 -12.4445,12.4445 V 737.7778 h -24.8888 V 600.88896 c 0,-7.0203 -5.4242,-12.4445 -12.4445,-12.4445 -7.0202,0 -12.4444,5.4242 -12.4444,12.4445 V 737.7778 h -24.8889 V 600.88896 c 0,-20.4712 16.8621,-37.3333 37.3333,-37.3333 9.523,0 18.2621,3.652 24.8889,9.6158 6.6268,-5.9638 15.3659,-9.6158 24.8889,-9.6158 9.523,0 18.2621,3.652 24.8889,9.6158 v -9.6158 z"
           style="color:#000000;font-style:normal;font-variant:normal;font-weight:normal;font-stretch:normal;font-size:medium;line-height:normal;font-family:sans-serif;font-variant-ligatures:normal;font-variant-position:normal;font-variant-caps:normal;font-variant-numeric:normal;font-variant-alternates:normal;font-feature-settings:normal;text-indent:0;text-align:start;text-decoration:none;text-decoration-line:none;text-decoration-style:solid;text-decoration-color:#000000;letter-spacing:normal;word-spacing:normal;text-transform:none;writing-mode:lr-tb;direction:ltr;text-orientation:mixed;dominant-baseline:auto;baseline-shift:baseline;text-anchor:start;white-space:normal;shape-padding:0;clip-rule:nonzero;display:inline;overflow:visible;visibility:visible;opacity:1;isolation:auto;mix-blend-mode:normal;color-interpolation:sRGB;color-interpolation-filters:linearRGB;solid-color:#000000;solid-opacity:1;vector-effect:none;fill:#010101;fill-opacity:1;fill-rule:nonzero;stroke:none;stroke-width:24.88888741;stroke-linecap:butt;stroke-linejoin:miter;stroke-miterlimit:3.5999999;stroke-dasharray:none;stroke-dashoffset:0;stroke-opacity:1;paint-order:normal;color-rendering:auto;image-rendering:auto;shape-rendering:auto;text-rendering:auto;enable-background:accumulate" />
        <path
           inkscape:connector-curvature="0"
           id="path5238"
           d="m 2160.4725,353.03668 v 37.3333 136.88884 c 0,13.8932 -10.9958,24.8889 -24.889,24.8889 -13.8932,0 -24.8889,-10.9957 -24.8889,-24.8889 h -24.8889 c 0,27.3441 22.4338,49.7778 49.7778,49.7778 27.3442,0 49.7779,-22.4337 49.7779,-49.7778 V 390.36998 c 0,-7.0203 5.4241,-12.4445 12.4444,-12.4445 7.0203,0 12.4445,5.4242 12.4445,12.4445 v 136.88884 h 24.8888 V 390.36998 c 0,-7.0203 5.4242,-12.4445 12.4445,-12.4445 7.0202,0 12.4444,5.4242 12.4444,12.4445 v 136.88884 h 24.8889 V 390.36998 c 0,-20.4712 -16.8621,-37.3333 -37.3333,-37.3333 -9.523,0 -18.2621,3.652 -24.8889,9.6158 -6.6268,-5.9638 -15.3659,-9.6158 -24.8889,-9.6158 -9.523,0 -18.2621,3.652 -24.8889,9.6158 v -9.6158 z"
           style="color:#000000;font-style:normal;font-variant:normal;font-weight:normal;font-stretch:normal;font-size:medium;line-height:normal;font-family:sans-serif;font-variant-ligatures:normal;font-variant-position:normal;font-variant-caps:normal;font-variant-numeric:normal;font-variant-alternates:normal;font-feature-settings:normal;text-indent:0;text-align:start;text-decoration:none;text-decoration-line:none;text-decoration-style:solid;text-decoration-color:#000000;letter-spacing:normal;word-spacing:normal;text-transform:none;writing-mode:lr-tb;direction:ltr;text-orientation:mixed;dominant-baseline:auto;baseline-shift:baseline;text-anchor:start;white-space:normal;shape-padding:0;clip-rule:nonzero;display:inline;overflow:visible;visibility:visible;opacity:1;isolation:auto;mix-blend-mode:normal;color-interpolation:sRGB;color-interpolation-filters:linearRGB;solid-color:#000000;solid-opacity:1;vector-effect:none;fill:#010101;fill-opacity:1;fill-rule:nonzero;stroke:none;stroke-width:24.88888741;stroke-linecap:butt;stroke-linejoin:miter;stroke-miterlimit:3.5999999;stroke-dasharray:none;stroke-dashoffset:0;stroke-opacity:1;paint-order:normal;color-rendering:auto;image-rendering:auto;shape-rendering:auto;text-rendering:auto;enable-background:accumulate" />
      </g>
    </clipPath>
    <clipPath
       clipPathUnits="userSpaceOnUse"
       id="clipPath4848">
      <rect
         style="opacity:0.70200004;fill:#ff0000;fill-opacity:1;fill-rule:nonzero;stroke:none;stroke-width:5;stroke-linecap:butt;stroke-linejoin:miter;stroke-miterlimit:4;stroke-dasharray:none;stroke-dashoffset:0;stroke-opacity:1;paint-order:normal"
         id="rect4850"
         width="1678.5035"
         height="79.966919"
         x="-2867.6533"
         y="1741.4395" />
    </clipPath>
    <clipPath
       clipPathUnits="userSpaceOnUse"
       id="clipPath4848-1">
      <rect
         style="opacity:0.70200004;fill:#ff0000;fill-opacity:1;fill-rule:nonzero;stroke:none;stroke-width:5;stroke-linecap:butt;stroke-linejoin:miter;stroke-miterlimit:4;stroke-dasharray:none;stroke-dashoffset:0;stroke-opacity:1;paint-order:normal"
         id="rect4850-4"
         width="1678.5035"
         height="79.966919"
         x="-2867.6533"
         y="1741.4395" />
    </clipPath>
    <linearGradient
       inkscape:collect="always"
       xlink:href="#linearGradient4842"
       id="linearGradient5090-3"
       x1="-2078.1868"
       y1="2905.188"
       x2="-2076.4189"
       y2="3074.1865"
       gradientUnits="userSpaceOnUse"
       gradientTransform="matrix(0.58302104,0.00562566,-0.00562566,0.58302104,1617.6829,-576.57701)" />
  </defs>
  <metadata
     id="metadata4488">
    <rdf:RDF>
      <cc:Work
         rdf:about="">
        <dc:format>image/svg+xml</dc:format>
        <dc:type
           rdf:resource="http://purl.org/dc/dcmitype/StillImage" />
        <dc:title></dc:title>
      </cc:Work>
    </rdf:RDF>
  </metadata>
  <g
     id="layer1"
     inkscape:groupmode="layer"
     inkscape:label="Layer 1"
     transform="translate(0,-1107.431)">
    <path
       inkscape:connector-curvature="0"
       id="path5068-1-2-9-3-0-9"
       style="color:#000000;font-style:normal;font-variant:normal;font-weight:normal;font-stretch:normal;font-size:medium;line-height:normal;font-family:sans-serif;font-variant-ligatures:normal;font-variant-position:normal;font-variant-caps:normal;font-variant-numeric:normal;font-variant-alternates:normal;font-feature-settings:normal;text-indent:0;text-align:start;text-decoration:none;text-decoration-line:none;text-decoration-style:solid;text-decoration-color:#000000;letter-spacing:normal;word-spacing:normal;text-transform:none;writing-mode:lr-tb;direction:ltr;text-orientation:mixed;dominant-baseline:auto;baseline-shift:baseline;text-anchor:start;white-space:normal;shape-padding:0;clip-rule:nonzero;display:inline;overflow:visible;visibility:visible;opacity:1;isolation:auto;mix-blend-mode:normal;color-interpolation:sRGB;color-interpolation-filters:linearRGB;solid-color:#000000;solid-opacity:1;vector-effect:none;fill:url(#linearGradient5090-3);fill-opacity:1;fill-rule:nonzero;stroke:none;stroke-width:6.40497732;stroke-linecap:butt;stroke-linejoin:miter;stroke-miterlimit:3.5999999;stroke-dasharray:none;stroke-dashoffset:0;stroke-opacity:1;paint-order:normal;color-rendering:auto;image-rendering:auto;shape-rendering:auto;text-rendering:auto;enable-background:accumulate"
       d="m 1240.7221,1107.9986 c -2.45,0.01 -4.6961,0.9508 -6.3974,2.4892 -1.709,-1.5309 -3.9595,-2.4643 -6.4102,-2.4585 -2.4507,0.01 -4.6977,0.9502 -6.3993,2.4892 l -0.01,-2.4749 -3.2014,0.01 0.023,9.6081 0.082,35.227 c 0.01,3.5753 -2.815,6.4107 -6.3903,6.4191 -3.5753,0.01 -6.4127,-2.8151 -6.421,-6.3903 -0.016,-7.0368 -5.8016,-12.7952 -12.8383,-12.7788 -7.0368,0.016 -12.7973,5.8034 -12.7807,12.8402 l 0.082,35.227 c 0,1.8066 -1.3867,3.2053 -3.1933,3.2096 -1.8067,0 -3.2073,-1.3885 -3.2115,-3.1952 l -0.082,-35.2271 -0.082,-35.227 c -0.012,-5.2682 -4.3623,-9.596 -9.6307,-9.5836 -2.4502,0.01 -4.6974,0.9504 -6.3993,2.4892 -1.709,-1.5309 -3.9593,-2.4663 -6.41,-2.4605 -2.4507,0.01 -4.6976,0.9504 -6.3993,2.4892 l -0.01,-2.4748 -3.2014,0.01 0.023,9.6081 0.082,35.2271 c 0.01,3.5752 -2.8151,6.4106 -6.3903,6.419 -3.5753,0.01 -6.4127,-2.815 -6.421,-6.3903 -0.016,-7.0368 -5.8015,-12.7953 -12.8382,-12.7788 -7.0368,0.016 -12.7973,5.8034 -12.7808,12.8402 l 0.082,35.227 c 0,1.8065 -1.3867,3.2054 -3.1932,3.2096 -1.8068,0 -3.2074,-1.3885 -3.2116,-3.1952 l -0.082,-35.2251 -0.082,-35.225 c -0.012,-5.2682 -4.3625,-9.598 -9.6306,-9.5856 -2.4506,0.01 -4.6957,0.9505 -6.3974,2.4892 -1.709,-1.5308 -3.9613,-2.4643 -6.4121,-2.4585 -2.4505,0.01 -4.6976,0.9502 -6.3993,2.4892 l -0.01,-2.4749 -3.2033,0.01 0.023,9.6062 0.084,35.2289 c 0.01,3.5754 -2.8151,6.4108 -6.3904,6.4192 -3.5753,0.01 -6.4126,-2.815 -6.421,-6.3904 -0.016,-7.0368 -5.8035,-12.7973 -12.8402,-12.7808 -7.0369,0.016 -12.7952,5.8034 -12.7788,12.8402 l 0.082,35.2291 c 0,1.8065 -1.3886,3.2034 -3.1952,3.2076 -1.8066,0.01 -3.2052,-1.3865 -3.2095,-3.1932 l -0.082,-35.2272 -6.4048,0.014 0.082,35.227 c 0,1.8067 -1.3887,3.2055 -3.1953,3.2097 -1.8066,0 -3.2053,-1.3886 -3.2095,-3.1952 l -0.084,-35.2271 -0.084,-35.227 c 0,-1.8067 1.3906,-3.2074 3.1971,-3.2115 1.8067,0 3.2035,1.3885 3.2077,3.1952 l 0.084,35.227 6.4047,-0.014 -0.084,-35.2271 c -0.012,-5.2682 -4.3606,-9.596 -9.6287,-9.5836 -2.4507,0.01 -4.6976,0.9504 -6.3993,2.4892 -1.709,-1.5309 -3.95927,-2.4661 -6.41017,-2.4604 -2.4505,0.01 -4.6976,0.9504 -6.3993,2.4892 v -2.4747 l -3.2033,0.01 0.022,9.6061 0.082,35.2291 c 0.01,3.5753 -2.8151,6.4107 -6.3904,6.419 -3.5753,0.01 -6.4107,-2.815 -6.4191,-6.3903 -0.016,-7.0368 -5.8034,-12.7953 -12.8402,-12.7788 -7.0368,0.016 -12.7971,5.8015 -12.7807,12.8382 l 0.084,35.229 c 0.01,1.8067 -1.3887,3.2054 -3.1952,3.2096 -1.8062,0.01 -3.2052,-1.3884 -3.2095,-3.1952 l -0.084,-35.227 -0.082,-35.2271 c -0.012,-5.2681 -4.36247,-9.5979 -9.63053,-9.5855 -2.45067,0.01 -4.69579,0.9505 -6.39742,2.4892 -1.70911,-1.5308 -3.9614,-2.4643 -6.41207,-2.4585 -2.45067,0.01 -4.6977,0.951 -6.39932,2.4891 l -0.005,-2.4748 -3.20143,0.01 0.0206,9.608 0.0839,35.2271 c 0.009,3.5752 -2.81499,6.4107 -6.39034,6.4191 -3.57524,0.01 -6.41263,-2.8151 -6.42104,-6.3903 -0.0161,-7.0368 -5.80341,-12.7952 -12.8402,-12.7788 -7.03678,0.016 -12.79539,5.8034 -12.77878,12.8402 l 0.0819,35.227 c 0.005,1.8066 -1.38849,3.2053 -3.19512,3.2095 -1.80663,0 -3.20545,-1.3885 -3.20962,-3.1951 l -0.0819,-35.2271 -0.082,-35.227 c -0.0122,-5.2682 -4.36259,-9.598 -9.63066,-9.5856 -2.45066,0.01 -4.69758,0.9504 -6.39931,2.4892 -1.70891,-1.5308 -3.95941,-2.4643 -6.41018,-2.4585 -2.45056,0.01 -4.69759,0.9505 -6.39931,2.4892 l -0.005,-2.4748 -3.20332,0.01 0.0226,9.6061 0.0839,35.229 c 0.009,3.5754 -2.81509,6.4108 -6.39033,6.4192 -3.57535,0.01 -6.41284,-2.8151 -6.42114,-6.3904 -0.0161,-7.0369 -5.8039,-12.7972 -12.84008,-12.7808 -7.03679,0.016 -12.79529,5.8034 -12.77879,12.8402 l 0.0819,35.229 c 0.004,1.8067 -1.38857,3.2033 -3.1951,3.2076 -1.80673,0 -3.20547,-1.3866 -3.20964,-3.1932 l -0.0819,-35.2271 -0.084,-35.227 c -0.0122,-5.2682 -4.3606,-9.5979 -9.62866,-9.5856 -2.45067,0.01 -4.69759,0.9504 -6.39932,2.4892 -1.70901,-1.5308 -3.95941,-2.4642 -6.41018,-2.4585 -2.45066,0.01 -4.69758,0.9504 -6.39931,2.4892 l 0.002,-2.4747 -3.20133,0.01 0.0225,9.6061 0.082,35.227 c 0.009,3.5753 -2.8151,6.4127 -6.39035,6.4211 -3.57535,0.01 -6.41084,-2.815 -6.41914,-6.3904 -0.0161,-7.0367 -5.80549,-12.7971 -12.84218,-12.7807 -7.03688,0.016 -12.79519,5.8033 -12.77869,12.8402 l 0.0819,35.227 c 0.005,1.8067 -1.38679,3.2055 -3.19321,3.2096 -1.80673,0 -3.20728,-1.3865 -3.21154,-3.1933 l -0.0819,-35.227 -0.082,-35.229 c -0.0122,-5.2682 -4.36251,-9.596 -9.63068,-9.5836 -2.45057,0.01 -4.69769,0.9503 -6.39931,2.4892 -1.70901,-1.5309 -3.95949,-2.4662 -6.41016,-2.4605 -2.45067,0.01 -4.69761,0.9525 -6.39934,2.4912 l -0.005,-2.4748 -3.20333,0.01 0.0225,9.6082 0.082,35.225 c 0.009,3.5754 -2.81511,6.4126 -6.39036,6.4211 -3.57534,0.01 -6.41073,-2.815 -6.41914,-6.3904 -0.0161,-7.0368 -5.80341,-12.7953 -12.8402,-12.7788 -7.03688,0.016 -12.79527,5.8013 -12.77876,12.8382 l 0.082,35.2272 c 0.005,1.8066 -1.38861,3.2072 -3.19523,3.2114 -1.80663,0 -3.20535,-1.3884 -3.20952,-3.1951 l -0.0729,-35.2271 -0.082,-35.227 c -0.0122,-5.2682 -4.36049,-9.5979 -9.62866,-9.5856 -2.45056,0.01 -4.69759,0.9505 -6.39931,2.4892 -1.70901,-1.5307 -3.95951,-2.4643 -6.41018,-2.4585 -2.45067,0.01 -4.69748,0.9497 -6.39931,2.4892 l -0.007,-2.4749 -3.2034,0.01 0.0226,9.6062 0.0819,35.229 c 0.009,3.5754 -2.81508,6.4105 -6.39033,6.4192 -3.57545,0.01 -6.41074,-2.8151 -6.41904,-6.3905 -0.0161,-7.0367 -5.8034,-12.7971 -12.84018,-12.7806 -7.0368,0.017 -12.7973,5.8033 -12.78079,12.8401 l 0.0839,35.229 c 0.005,1.8066 -1.38857,3.2034 -3.1951,3.2076 -1.80673,0 -3.20537,-1.3866 -3.20964,-3.1932 l -0.0839,-35.2271 -0.082,-35.227 c -0.0122,-5.2682 -4.3606,-9.5979 -9.62866,-9.5855 -2.45067,0.01 -4.69769,0.9504 -6.39932,2.4891 -1.70901,-1.5307 -3.96131,-2.4642 -6.41208,-2.4585 -2.45066,0.01 -4.69569,0.9505 -6.39741,2.4892 l -0.007,-2.4748 -3.20331,0.01 0.0225,9.6081 0.0839,35.2271 c 0.009,3.5752 -2.81698,6.4107 -6.39223,6.4191 -3.57535,0.01 -6.40884,-2.8151 -6.41724,-6.3904 -0.0161,-7.0368 -5.80542,-12.7946 -12.8421,-12.7788 -7.03688,0.016 -12.79719,5.8035 -12.78079,12.8401 l 0.0859,35.2272 c 0.005,1.8064 -1.39049,3.2053 -3.19712,3.2095 -1.80662,0.01 -3.20325,-1.3885 -3.20762,-3.1952 l -0.0859,-35.2271 -0.08,-35.227 c -0.0122,-5.268 -4.36092,-9.5959 -9.62868,-9.5835 -2.45067,0.01 -4.69769,0.9508 -6.39932,2.4891 -1.70921,-1.5308 -3.9633,-2.4643 -6.41407,-2.4584 -2.45057,0.01 -4.69369,0.9503 -6.39542,2.4891 l -10e-4,-2.4748 -3.20133,0.01 0.0225,9.6062 0.082,35.2289 c 0.008,3.5754 -2.81509,6.4108 -6.39044,6.4192 -3.57515,0.01 -6.41263,-2.8151 -6.42104,-6.3904 -0.0161,-7.0368 -5.80339,-12.7972 -12.84018,-12.7808 -7.03678,0.016 -12.79539,5.8034 -12.77878,12.8402 l 0.082,35.2271 c 0.004,1.8066 -1.38849,3.2053 -3.19511,3.2096 -1.80662,0 -3.20547,-1.3871 -3.20964,-3.1932 l -0.082,-35.2272 -0.0819,-35.227 c -0.0122,-5.2682 -4.36259,-9.5979 -9.63066,-9.5856 -2.45066,0.01 -4.69769,0.9504 -6.39931,2.4892 -1.70901,-1.5309 -3.95941,-2.4642 -6.41018,-2.4585 -2.45067,0.01 -4.69759,0.9505 -6.39931,2.4892 l -0.007,-2.4748 -3.20126,-0.01 0.0225,9.6062 0.084,35.2309 c 0.009,3.5753 -2.81686,6.4087 -6.39231,6.4172 -3.57515,0.01 -6.41274,-2.815 -6.42104,-6.3904 -0.0161,-7.0368 -5.80341,-12.7953 -12.8402,-12.7788 -7.03678,0.016 -12.79527,5.8014 -12.77877,12.8382 l 0.0819,35.2291 c 0.004,1.8065 -1.38859,3.2053 -3.19511,3.2095 -1.80673,0 -3.20537,-1.3865 -3.20954,-3.1932 l -0.082,-35.2271 -0.082,-35.227 c -0.0122,-5.2682 -4.36259,-9.5979 -9.63066,-9.5856 -2.45066,0.01 -4.69559,0.9506 -6.39731,2.4892 -1.70901,-1.5307 -3.96141,-2.4643 -6.41208,-2.4585 -2.45067,0.01 -4.69769,0.9502 -6.39932,2.4892 l -10e-4,-2.4747 -3.20143,0.01 0.0206,9.608 0.0819,35.2272 c 0.008,3.5753 -2.81309,6.4108 -6.38834,6.419 -3.57534,0.01 -6.41273,-2.815 -6.42104,-6.3903 -0.0161,-7.0368 -5.80351,-12.7953 -12.8402,-12.7788 -7.03688,0.016 -12.79529,5.8034 -12.77878,12.8402 l 0.0839,35.227 c 0.005,1.8065 -1.3905,3.2054 -3.19712,3.2095 -1.80663,0 -3.20335,-1.3883 -3.20762,-3.1951 l -0.0839,-35.227 -0.0859,-35.2271 c -0.0122,-5.2683 -4.36059,-9.5979 -9.62866,-9.5855 -2.45066,0.01 -4.69758,0.9503 -6.39931,2.489 -1.70901,-1.5307 -3.95931,-2.4641 -6.41018,-2.4583 -2.45056,0.01 -4.69759,0.9503 -6.39931,2.489 l -0.001,-2.4747 -3.2014,0.01 0.0226,9.6082 0.0819,35.227 c 0.008,3.5754 -2.81511,6.4127 -6.39035,6.421 -3.57535,0.01 -6.41274,-2.815 -6.42104,-6.3903 -0.0161,-7.0368 -5.8034,-12.7973 -12.84018,-12.7808 -7.03679,0.016 -12.79529,5.8035 -12.77879,12.8402 l 0.082,35.227 c 0.005,1.8068 -1.38669,3.2055 -3.19322,3.2097 -1.80673,0 -3.20725,-1.3886 -3.21152,-3.1953 l -0.082,-35.2251 -0.082,-35.227 c -0.0122,-5.2682 -4.3625,-9.5979 -9.63056,-9.5856 -2.45067,0.01 -4.69759,0.9504 -6.39932,2.4892 -1.70901,-1.531 -3.95951,-2.4642 -6.41018,-2.4585 -2.45066,0.01 -4.69768,0.9504 -6.39931,2.4892 l -0.005,-2.4748 -3.20333,0.01 0.0225,9.6061 0.0839,35.229 c 0.009,3.5753 -2.81498,6.4108 -6.39033,6.4192 -3.57525,0.01 -6.41264,-2.8151 -6.42104,-6.3905 -0.0161,-7.0368 -5.80339,-12.7971 -12.84018,-12.7807 -7.03678,0.016 -12.79539,5.8033 -12.77879,12.8402 l 0.082,35.2291 c 0.005,1.8066 -1.38859,3.2052 -3.19521,3.2095 -1.806626,0 -3.205356,-1.3885 -3.209516,-3.1952 l -0.082,-35.2271 -0.082,-35.227 c -0.0122,-5.2682 -4.36259,-9.5979 -9.63056,-9.5856 -2.45066,0.01 -4.69769,0.9505 -6.39931,2.4892 -1.70891,-1.5308 -3.95931,-2.4642 -6.41018,-2.4585 -2.45057,0.01 -4.69759,0.9507 -6.39932,2.4892 l -0.005,-2.4748 -3.20341,0.01 0.0226,9.6081 0.082,35.227 c 0.008,3.5754 -2.81519,6.4109 -6.39044,6.4192 -3.57534,0.01 -6.41063,-2.8151 -6.41903,-6.3903 -0.0161,-7.0369 -5.80342,-12.7952 -12.840201,-12.7788 -7.036783,0.016 -12.797291,5.8034 -12.780786,12.8401 l 0.08391,35.2271 c 0.0036,1.8066 -1.388591,3.2053 -3.195116,3.2095 -1.806629,0 -3.205451,-1.3886 -3.20962,-3.1952 l -0.08393,-35.2251 -6.404715,0.012 0.08389,35.2291 c 0.0046,1.8067 -1.388492,3.2053 -3.195116,3.2095 -1.8065277,0.01 -3.2052507,-1.3886 -3.2095197,-3.1952 l -0.08401,-35.227 -6.404716,0.012 0.08401,35.227 c 0.01217,5.2683 4.360496,9.5979 9.6286607,9.5855 2.450666,-0.01 4.697588,-0.9504 6.399315,-2.4891 1.709009,1.5307 3.959407,2.4642 6.410177,2.4584 2.450666,-0.01 4.697591,-0.9506 6.399315,-2.4891 l 0.0051,2.4747 3.203427,-0.01 -0.0226,-9.608 -0.08191,-35.227 c -0.0085,-3.5754 2.815087,-6.4108 6.390334,-6.4192 3.575351,-0.01 6.410831,2.815 6.419141,6.3903 0.0161,7.0369 5.80341,12.7953 12.84019,12.7788 7.03679,-0.016 12.7971,-5.8034 12.78069,-12.84 l -0.0986,-35.2203 c -0.005,-1.8068 1.38859,-3.2053 3.19512,-3.2096 1.80663,0 3.20535,1.3884 3.20962,3.1952 l 0.0839,35.229 0.0839,35.2251 c 0.0122,5.2681 4.3606,9.5979 9.62866,9.5855 2.45067,0 4.69759,-0.9503 6.39932,-2.4891 1.70901,1.5308 3.95939,2.4661 6.410156,2.4604 2.45066,-0.01 4.69771,-0.9524 6.39933,-2.4911 l 0.005,2.4748 3.20333,-0.01 -0.0225,-9.6062 -0.082,-35.227 c -0.009,-3.5754 2.8151,-6.4126 6.39035,-6.421 3.57535,-0.01 6.41084,2.8149 6.41914,6.3903 0.0161,7.0369 5.80339,12.7973 12.84018,12.7808 7.03678,-0.016 12.79729,-5.8034 12.78079,-12.8402 l -0.084,-35.2271 c -0.004,-1.8066 1.38869,-3.2055 3.19522,-3.2096 1.80672,0 3.20727,1.3866 3.21153,3.1934 l 0.0819,35.227 0.082,35.225 c 0.0122,5.2682 4.36259,9.598 9.63066,9.5856 2.45066,0 4.69759,-0.9505 6.39931,-2.4892 1.70901,1.5308 3.95949,2.4663 6.41016,2.4605 2.45067,-0.01 4.69771,-0.9524 6.39934,-2.4912 l 0.001,2.4747 3.20333,-0.01 -0.0225,-9.6061 -0.084,-35.2271 c -0.008,-3.5754 2.81521,-6.4126 6.39046,-6.421 3.57534,-0.01 6.41063,2.815 6.41904,6.3903 0.0161,7.0369 5.80539,12.7968 12.84218,12.7808 7.03688,-0.016 12.79539,-5.8034 12.77878,-12.8402 l -0.082,-35.2271 c -0.005,-1.8066 1.3885,-3.2054 3.19512,-3.2095 1.80663,0 3.20537,1.3865 3.20964,3.1932 l 0.082,35.2309 6.40276,-0.016 -0.082,-35.227 c -0.005,-1.8067 1.38869,-3.2054 3.19521,-3.2095 1.80663,0 3.20526,1.3884 3.20952,3.1951 l 0.0839,35.227 0.084,35.2291 c 0.005,1.8066 -1.38849,3.2053 -3.19521,3.2095 -1.80653,0.01 -3.20536,-1.3885 -3.20953,-3.1951 l -0.0839,-35.2271 -6.40474,0.014 0.0819,35.2271 c 0.0122,5.2682 4.36251,9.5961 9.63068,9.5836 2.45066,-0.01 4.69759,-0.9505 6.39931,-2.4891 1.70891,1.5307 3.95949,2.4661 6.41016,2.4603 2.45067,-0.01 4.69759,-0.9503 6.39932,-2.4891 l -8.8e-4,2.4748 3.20333,-0.01 -0.0186,-9.6062 -0.0859,-35.227 c -0.009,-3.5753 2.81701,-6.4128 6.39236,-6.4211 3.57524,-0.01 6.40873,2.815 6.41714,6.3903 0.0161,7.0369 5.80341,12.7953 12.84019,12.7788 7.03679,-0.016 12.79918,-5.8014 12.78267,-12.8381 l -0.0859,-35.2271 c -0.005,-1.8066 1.39261,-3.2073 3.19914,-3.2115 1.80673,0 3.20145,1.3885 3.20562,3.1952 l 0.0859,35.2251 0.08,35.2251 c 0.0122,5.2681 4.3624,9.5979 9.63066,9.5856 2.45057,-0.01 4.69739,-0.9505 6.39932,-2.4892 1.70901,1.5307 3.95949,2.4661 6.41016,2.4603 2.45066,-0.01 4.6956,-0.9523 6.39733,-2.491 l 0.003,2.4747 3.20331,-0.01 -0.0206,-9.6061 -0.0839,-35.2271 c -0.008,-3.5753 2.8151,-6.4126 6.39035,-6.421 3.57535,-0.01 6.41084,2.8149 6.41914,6.3903 0.0161,7.0369 5.80339,12.7973 12.84018,12.7808 7.03678,-0.016 12.79719,-5.8034 12.78069,-12.8402 l -0.0839,-35.227 c -0.005,-1.8067 1.39049,-3.2055 3.19712,-3.2096 1.80662,0 3.20337,1.3864 3.20763,3.1931 l 0.0839,35.2271 0.082,35.227 c 0.0122,5.2682 4.3606,9.598 9.62866,9.5856 2.45067,-0.01 4.69759,-0.9503 6.39932,-2.4891 1.70901,1.5308 3.96138,2.4661 6.41215,2.4604 2.45067,0 4.69761,-0.9524 6.39934,-2.4911 l 10e-4,2.4748 3.20141,-0.01 -0.0206,-9.6082 -0.0839,-35.227 c -0.009,-3.5754 2.8151,-6.4128 6.39035,-6.4211 3.57535,-0.01 6.41073,2.815 6.41914,6.3904 0.0161,7.0367 5.80519,12.7973 12.84208,12.7808 7.03678,-0.016 12.79529,-5.8034 12.77878,-12.8402 l -0.0819,-35.2271 c -0.005,-1.8066 1.38859,-3.2053 3.19511,-3.2096 1.80673,0 3.20546,1.3883 3.20962,3.1952 l 0.0819,35.2252 0.084,35.227 c 0.0122,5.2682 4.36061,9.5959 9.62868,9.5836 2.45066,-0.01 4.69759,-0.9506 6.39931,-2.4892 1.70901,1.5308 3.95939,2.4663 6.41016,2.4605 2.45067,0 4.69759,-0.9505 6.39931,-2.4892 l 0.007,2.4748 3.2014,-0.01 -0.0206,-9.6062 -0.0839,-35.227 c -0.008,-3.5754 2.81513,-6.4147 6.39037,-6.4231 3.57535,-0.01 6.41072,2.817 6.41912,6.3924 0.0161,7.0368 5.80532,12.7953 12.8421,12.7788 7.03679,-0.016 12.79539,-5.8034 12.77879,-12.8402 l -0.082,-35.2271 c -0.005,-1.8066 1.38849,-3.2053 3.19522,-3.2095 1.80663,0 3.20525,1.3887 3.20952,3.1951 l 0.082,35.2291 0.0839,35.227 c 0.0122,5.2682 4.36059,9.5979 9.62866,9.5856 2.45066,-0.01 4.69769,-0.9505 6.39931,-2.4892 1.70901,1.5307 3.95941,2.4643 6.41018,2.4585 2.45056,-0.01 4.69759,-0.9505 6.39931,-2.4892 l 0.007,2.4729 h 3.20327 l -0.0225,-9.6082 -0.084,-35.227 c -0.009,-3.5754 2.81519,-6.4108 6.39043,-6.4191 3.57535,-0.01 6.41064,2.8148 6.41904,6.3903 0.0161,7.0368 5.80552,12.7954 12.8422,12.7789 7.03689,-0.016 12.79519,-5.8035 12.77879,-12.8402 l -0.082,-35.2271 c -0.005,-1.8066 1.38859,-3.2053 3.19522,-3.2095 1.80663,0 3.20535,1.3884 3.20952,3.1951 l 0.082,35.2271 0.0839,35.227 c 0.0122,5.2682 4.3605,9.5978 9.62866,9.5856 2.45057,0 4.69759,-0.9505 6.39932,-2.4892 1.70901,1.5307 3.95941,2.4642 6.41018,2.4584 2.45066,0 4.69759,-0.9505 6.39931,-2.4891 l 0.007,2.4749 3.19943,-0.01 -0.0245,-9.6081 -0.0781,-35.2251 c -0.009,-3.5754 2.81321,-6.413 6.38845,-6.4211 3.57535,-0.01 6.41274,2.815 6.42104,6.3904 0.0161,7.0367 5.79961,12.7952 12.8363,12.7787 7.03688,-0.016 12.80099,-5.8032 12.78459,-12.8401 l -0.0858,-35.2271 c -0.005,-1.8066 1.38669,-3.2054 3.19321,-3.2095 1.80673,0 3.21114,1.3904 3.2154,3.1971 l 0.0819,35.2271 0.0801,35.227 c 0.0122,5.2682 4.36064,9.5939 9.6287,9.5816 2.45066,0 4.69759,-0.9503 6.39931,-2.4891 1.70901,1.5308 3.96337,2.4681 6.41404,2.4624 2.45067,-0.01 4.69761,-0.9524 6.39934,-2.4911 l 10e-4,2.4747 h 3.20123 l -0.0206,-9.608 -0.0838,-35.233 c -0.009,-3.5753 2.81507,-6.4087 6.39032,-6.4171 3.57535,-0.01 6.41277,2.8111 6.42118,6.3864 0.0161,7.0368 5.80337,12.7992 12.84016,12.7827 7.03688,-0.016 12.79527,-5.8014 12.77876,-12.8382 l -0.084,-35.229 c -0.005,-1.8067 1.38675,-3.2015 3.19317,-3.2057 1.80673,0 3.20728,1.3866 3.21154,3.1933 l 0.084,35.2231 0.0819,35.2271 c 0.0122,5.2682 4.36049,9.5979 9.62866,9.5855 2.45066,0 4.69758,-0.9502 6.39931,-2.4892 1.70901,1.5312 3.95941,2.4643 6.41018,2.4585 2.45067,0 4.69759,-0.9505 6.39931,-2.4892 l 0.003,2.4768 3.20131,-0.01 -0.0225,-9.6062 -0.082,-35.227 c -0.009,-3.5754 2.81521,-6.4127 6.39046,-6.4211 3.57534,-0.01 6.41073,2.815 6.41904,6.3904 0.0161,7.0369 5.80541,12.7953 12.84219,12.7788 7.03679,-0.016 12.79528,-5.8015 12.77877,-12.8383 l -0.082,-35.2251 c -0.005,-1.8067 1.38673,-3.2092 3.19326,-3.2135 1.80663,0 3.20733,1.3905 3.2115,3.1972 l 0.082,35.2271 0.0819,35.227 c 0.0122,5.2682 4.36059,9.5979 9.62866,9.5856 2.45066,-0.01 4.69759,-0.9505 6.39931,-2.4892 1.70901,1.5307 3.96141,2.4641 6.41218,2.4585 2.45067,-0.01 4.69569,-0.9506 6.39731,-2.4892 l 0.003,2.4747 3.20142,-0.01 -0.0226,-9.6041 -0.082,-35.231 c -0.008,-3.5753 2.81519,-6.4107 6.39043,-6.4191 3.57535,-0.01 6.41074,2.8152 6.41904,6.3904 0.0161,7.0369 5.80542,12.7953 12.8422,12.7788 7.03669,-0.016 12.79527,-5.8015 12.77877,-12.8383 l -0.082,-35.2289 c -0.004,-1.8066 1.38666,-3.2016 3.19318,-3.2057 1.80673,0 3.20727,1.3865 3.21154,3.1932 l 0.082,35.2251 0.0819,35.2251 c 0.0122,5.2681 4.3626,9.5979 9.63066,9.5855 2.45067,-0.01 4.69761,-0.9524 6.39934,-2.491 1.70901,1.5307 3.9595,2.4662 6.4101,2.4603 2.4507,-0.01 4.6977,-0.9501 6.3993,-2.4891 v 2.4767 l 3.2034,-0.01 -0.023,-9.6101 -0.082,-35.227 c -0.01,-3.5754 2.8152,-6.4103 6.3904,-6.419 3.5754,-0.01 6.4106,2.8168 6.4191,6.3922 0.016,7.0369 5.8052,12.7952 12.8421,12.7788 7.0368,-0.016 12.7933,-5.8053 12.7768,-12.8421 l -0.082,-35.2252 c 0,-1.8066 1.3885,-3.2073 3.1951,-3.2115 1.8064,0 3.20537,1.3885 3.20957,3.1952 l 0.084,35.231 0.082,35.227 c 0.012,5.2682 4.3605,9.5979 9.6287,9.5856 2.4506,0 4.6976,-0.9524 6.3993,-2.4911 1.7089,1.5308 3.9595,2.4661 6.4102,2.4604 2.4506,0 4.6976,-0.9523 6.3993,-2.4911 l 0.01,2.4748 h 3.2014 l -0.023,-9.6081 -0.082,-35.227 c -0.01,-3.5756 2.815,-6.4128 6.3903,-6.4211 3.5753,-0.01 6.4108,2.815 6.4192,6.3904 0.016,7.0368 5.8034,12.7973 12.8402,12.7808 7.0368,-0.016 12.7972,-5.8035 12.7807,-12.8402 l -0.082,-35.227 c 0,-1.8067 1.3866,-3.2055 3.1933,-3.2097 1.8066,0 3.2073,1.3865 3.2115,3.1932 l 0.082,35.2252 0.082,35.227 c 0.012,5.2683 4.3624,9.598 9.6306,9.5856 2.4507,0 4.6976,-0.9508 6.3993,-2.4892 1.709,1.5308 3.9594,2.4642 6.4102,2.4585 2.4507,-0.01 4.6976,-0.9504 6.3993,-2.4892 l 0.01,2.4748 3.2013,-0.01 -0.023,-9.6081 -0.082,-35.227 c -0.01,-3.5754 2.8152,-6.4107 6.3905,-6.4191 3.5753,-0.01 6.4106,2.8149 6.419,6.3903 0.016,7.0369 5.8034,12.7953 12.8402,12.7788 7.0368,-0.016 12.7973,-5.8034 12.7808,-12.8402 l -0.082,-35.227 c 0,-1.8067 1.3866,-3.2054 3.1932,-3.2096 1.8066,0 3.2072,1.3885 3.2115,3.1953 l 0.082,35.227 0.082,35.225 c 0.012,5.2682 4.3625,9.598 9.6306,9.5856 2.4507,-0.01 4.6976,-0.9504 6.3993,-2.4892 1.709,1.5308 3.9594,2.4662 6.4102,2.4605 2.4507,-0.01 4.6976,-0.9525 6.3993,-2.4912 v 2.4747 l 3.2054,-0.01 -0.025,-9.6081 -0.08,-35.225 c -0.01,-3.5753 2.8112,-6.4129 6.3865,-6.4212 3.5753,-0.01 6.4126,2.8151 6.421,6.3905 0.016,7.0368 5.8034,12.7953 12.8402,12.7788 7.0369,-0.016 12.7953,-5.8034 12.7788,-12.8402 l -0.08,-35.2251 c 0,-1.8067 1.3868,-3.2074 3.1932,-3.2116 1.8067,0 3.2074,1.3883 3.2115,3.1953 l 0.08,35.227 0.086,35.2251 c 0.012,5.2682 4.3606,9.5979 9.6286,9.5855 2.4507,-0.01 4.6976,-0.9504 6.3993,-2.4891 1.7091,1.5308 3.9594,2.4662 6.4102,2.4604 2.4507,-0.01 4.6976,-0.9523 6.3993,-2.4911 v 2.4748 l 3.2033,-0.01 -0.023,-9.6082 -0.082,-35.225 c -0.01,-3.5754 2.8151,-6.4127 6.3904,-6.4211 3.5753,-0.01 6.4107,2.815 6.4191,6.3903 0,0.3211 0.028,0.6364 0.053,0.9518 l 1.4765,0.014 4.6091,0.044 h 0.3575 c -0.054,-0.3356 -0.091,-0.678 -0.092,-1.0302 -0.016,-7.0368 -5.8035,-12.7972 -12.8402,-12.7808 -7.0369,0.016 -12.7952,5.8035 -12.7788,12.8402 l 0.082,35.229 c 0,1.8067 -1.3887,3.2034 -3.1952,3.2076 -1.8067,0.01 -3.2053,-1.3865 -3.2095,-3.1933 l -0.082,-35.227 -0.084,-35.227 c -0.012,-5.2675 -4.3596,-9.5969 -9.6268,-9.5856 z m 0.02,6.3872 v 0 c 1.8067,0 3.2053,1.3885 3.2096,3.1952 l 0.082,35.227 0.084,35.2252 c 0,1.8067 -1.3886,3.2052 -3.1951,3.2095 -1.8066,0.01 -3.2054,-1.3865 -3.2097,-3.1932 l -0.084,-35.2271 -0.082,-35.227 c 0,-1.8066 1.3887,-3.2072 3.1953,-3.2115 z m -76.861,0.1998 c 1.8067,0 3.2074,1.3886 3.2116,3.1952 l 0.082,35.227 0.082,35.2271 c 0,1.8067 -1.3866,3.2052 -3.1932,3.2095 -1.8066,0 -3.2073,-1.3879 -3.2116,-3.1952 l -0.082,-35.2251 -0.082,-35.227 c 0,-1.8067 1.3867,-3.2073 3.1932,-3.2115 z m -76.8607,0.1803 c 1.8066,0 3.2073,1.3866 3.2115,3.1932 l 0.082,35.225 0.082,35.2291 c 0,1.8067 -1.3867,3.2053 -3.1932,3.2095 -1.8067,0 -3.2073,-1.3885 -3.2116,-3.1951 l -0.082,-35.2252 -0.082,-35.227 c 0,-1.8066 1.3866,-3.2054 3.1932,-3.2095 z m -153.71744,0.339 v 0 c 1.80663,0 3.20537,1.3866 3.20964,3.1932 l 0.0819,35.2271 0.084,35.227 c 0.005,1.8066 -1.38859,3.2054 -3.19521,3.2096 -1.80653,0.01 -3.20525,-1.3886 -3.20952,-3.1952 l -0.084,-35.227 -0.0819,-35.2252 c -0.004,-1.8067 1.38861,-3.2072 3.19514,-3.2115 z m -76.86091,0.1998 c 1.80663,0 3.20715,1.3886 3.21142,3.1953 l 0.082,35.227 0.082,35.229 c 0.005,1.8067 -1.38869,3.2054 -3.19522,3.2095 -1.80662,0.01 -3.20525,-1.3887 -3.20952,-3.1951 l -0.082,-35.2271 -0.082,-35.227 c -0.005,-1.8067 1.38681,-3.2074 3.19333,-3.2116 z m -76.85891,0.1803 c 1.80652,0 3.20545,1.3885 3.20962,3.1953 l 0.0839,35.227 0.082,35.227 c 0.005,1.8068 -1.38859,3.2054 -3.19521,3.2096 -1.80653,0.01 -3.20526,-1.3885 -3.20952,-3.1952 l -0.0839,-35.227 -0.082,-35.2251 c -0.005,-1.8067 1.38861,-3.2074 3.19514,-3.2116 z m -76.86074,0.1822 c 1.80653,0 3.20737,1.3868 3.21154,3.1934 l 0.0819,35.227 0.082,35.227 c 0.004,1.8067 -1.38669,3.2054 -3.19321,3.2096 -1.80663,0.01 -3.20727,-1.3866 -3.21154,-3.1933 l -0.082,-35.227 -0.0819,-35.227 c -0.005,-1.8067 1.3867,-3.2055 3.19322,-3.2097 z m -76.8588,0.1785 c 1.80653,0 3.20535,1.3885 3.20952,3.1951 l 0.0839,35.227 0.082,35.2271 c 0.005,1.8067 -1.38861,3.2073 -3.19524,3.2115 -1.80653,0.01 -3.20535,-1.3885 -3.20952,-3.1951 l -0.082,-35.2271 -0.0839,-35.227 c -0.004,-1.8066 1.38861,-3.2074 3.19523,-3.2115 z m -76.85892,0.1802 c 1.80663,0 3.20536,1.3886 3.20962,3.1952 l 0.082,35.227 0.0839,35.2271 c 0.005,1.8067 -1.38869,3.2054 -3.19522,3.2096 -1.80663,0.01 -3.20525,-1.3886 -3.20952,-3.1952 l -0.0839,-35.2271 -0.082,-35.227 c -0.005,-1.8066 1.38849,-3.2055 3.19511,-3.2096 z m -76.86053,0.1608 v 0 c 1.80663,0 3.20728,1.3866 3.21154,3.1932 l 0.0819,35.2271 0.082,35.2271 c 0.005,1.8066 -1.38669,3.2053 -3.19322,3.2095 -1.80663,0 -3.20725,-1.3885 -3.21152,-3.1952 l -0.082,-35.227 -0.0819,-35.2271 c -0.005,-1.8066 1.38669,-3.2052 3.19321,-3.2095 z m -76.859,0.1998 c 1.80662,0 3.20535,1.3886 3.20952,3.1952 l 0.0839,35.2271 0.082,35.227 c 0.004,1.8067 -1.3886,3.2053 -3.19522,3.2095 -1.80652,0 -3.20525,-1.3886 -3.20952,-3.1952 l -0.082,-35.227 -0.0839,-35.2271 c -0.004,-1.8067 1.38869,-3.2052 3.19522,-3.2095 z m -76.8608,0.1783 c 1.80653,0 3.20735,1.3886 3.21152,3.1952 l 0.082,35.2251 0.0819,35.227 c 0.005,1.8067 -1.3886,3.2055 -3.19512,3.2096 -1.80663,0.01 -3.20537,-1.3866 -3.20964,-3.1932 l -0.0819,-35.227 -0.084,-35.2252 c -0.005,-1.8066 1.38862,-3.2073 3.19524,-3.2115 z m -153.71762,0.3586 c 1.80663,0 3.20526,1.3886 3.20952,3.1953 l 0.082,35.227 0.0819,35.227 c 0.005,1.8066 -1.38659,3.2053 -3.19322,3.2096 -1.80652,0.01 -3.20725,-1.3886 -3.21152,-3.1952 l -0.0819,-35.227 -0.082,-35.2271 c -0.004,-1.8068 1.38869,-3.2053 3.19521,-3.2096 z m -76.876426,0.1821 v 0 c 1.80572,0 3.20534,1.3893 3.20962,3.1952 l 0.0819,35.227 0.084,35.2271 c 0.005,1.8067 -1.3887,3.2054 -3.19522,3.2096 -1.80663,0.01 -3.20525,-1.3886 -3.20952,-3.1952 l -0.084,-35.2252 -6.32654,0.015 6.32856,-0.017 -0.0839,-35.2271 c -0.005,-1.806 1.38769,-3.2043 3.19322,-3.2096 z" />
  </g>
</svg>
