<?xml version="1.0" encoding="UTF-8" standalone="no"?>
<!-- Created with Inkscape (http://www.inkscape.org/) -->

<svg
   xmlns:dc="http://purl.org/dc/elements/1.1/"
   xmlns:cc="http://creativecommons.org/ns#"
   xmlns:rdf="http://www.w3.org/1999/02/22-rdf-syntax-ns#"
   xmlns:svg="http://www.w3.org/2000/svg"
   xmlns="http://www.w3.org/2000/svg"
   xmlns:sodipodi="http://sodipodi.sourceforge.net/DTD/sodipodi-0.dtd"
   xmlns:inkscape="http://www.inkscape.org/namespaces/inkscape"
   width="256px"
   height="256px"
   viewBox="0 0 256 256"
   version="1.1"
   id="SVGRoot"
   inkscape:version="0.92.0 r15299"
   sodipodi:docname="jm logo 3.svg"
   inkscape:export-filename="C:\Users\jmath\Documents\Inkscape SVGs\jm logo 3.png"
   inkscape:export-xdpi="96"
   inkscape:export-ydpi="96">
  <sodipodi:namedview
     id="base"
     pagecolor="#ffffff"
     bordercolor="#666666"
     borderopacity="1.0"
     inkscape:pageopacity="0.0"
     inkscape:pageshadow="2"
     inkscape:zoom="0.5"
     inkscape:cx="144.26366"
     inkscape:cy="122.00579"
     inkscape:document-units="px"
     inkscape:current-layer="layer1"
     showgrid="false"
     inkscape:window-width="1366"
     inkscape:window-height="705"
     inkscape:window-x="-8"
     inkscape:window-y="-8"
     inkscape:window-maximized="1"
     inkscape:grid-bbox="true">
    <inkscape:grid
       type="xygrid"
       id="grid5066" />
  </sodipodi:namedview>
  <defs
     id="defs4485" />
  <metadata
     id="metadata4488">
    <rdf:RDF>
      <cc:Work
         rdf:about="">
        <dc:format>image/svg+xml</dc:format>
        <dc:type
           rdf:resource="http://purl.org/dc/dcmitype/StillImage" />
        <dc:title></dc:title>
      </cc:Work>
    </rdf:RDF>
  </metadata>
  <g
     id="layer1"
     inkscape:groupmode="layer"
     inkscape:label="Layer 1">
    <path
       style="color:#000000;font-style:normal;font-variant:normal;font-weight:normal;font-stretch:normal;font-size:medium;line-height:normal;font-family:sans-serif;font-variant-ligatures:normal;font-variant-position:normal;font-variant-caps:normal;font-variant-numeric:normal;font-variant-alternates:normal;font-feature-settings:normal;text-indent:0;text-align:start;text-decoration:none;text-decoration-line:none;text-decoration-style:solid;text-decoration-color:#000000;letter-spacing:normal;word-spacing:normal;text-transform:none;writing-mode:lr-tb;direction:ltr;text-orientation:mixed;dominant-baseline:auto;baseline-shift:baseline;text-anchor:start;white-space:normal;shape-padding:0;clip-rule:nonzero;display:inline;overflow:visible;visibility:visible;opacity:1;isolation:auto;mix-blend-mode:normal;color-interpolation:sRGB;color-interpolation-filters:linearRGB;solid-color:#000000;solid-opacity:1;vector-effect:none;fill:#010101;fill-opacity:1;fill-rule:nonzero;stroke:none;stroke-width:24.88888741;stroke-linecap:butt;stroke-linejoin:miter;stroke-miterlimit:3.5999999;stroke-dasharray:none;stroke-dashoffset:0;stroke-opacity:1;paint-order:normal;color-rendering:auto;image-rendering:auto;shape-rendering:auto;text-rendering:auto;enable-background:accumulate"
       d="M 103.16666,24 V 61.333327 198.22223 c 0,13.89313 -10.995738,24.88887 -24.888883,24.88887 -13.893148,0 -24.88889,-10.99574 -24.88889,-24.88887 H 28.5 C 28.5,225.56632 50.933668,248 78.277777,248 105.62187,248 128.05556,225.56632 128.05556,198.22223 V 61.333327 c 0,-7.020275 5.42415,-12.444439 12.44443,-12.444439 7.02026,0 12.44446,5.424164 12.44446,12.444439 V 198.22223 h 24.88888 V 61.333327 c 0,-7.020275 5.42415,-12.444439 12.44444,-12.444439 7.02027,0 12.44446,5.424164 12.44446,12.444439 V 198.22223 h 24.88888 V 61.333327 C 227.61111,40.862104 210.74898,24 190.27777,24 180.75475,24 172.0157,27.652056 165.3889,33.615885 158.76208,27.652056 150.02301,24 140.49999,24 c -9.52301,0 -18.26206,3.652056 -24.88889,9.615885 V 24 Z"
       id="path5068"
       inkscape:connector-curvature="0" />
    <path
       style="color:#000000;font-style:normal;font-variant:normal;font-weight:normal;font-stretch:normal;font-size:medium;line-height:normal;font-family:sans-serif;font-variant-ligatures:normal;font-variant-position:normal;font-variant-caps:normal;font-variant-numeric:normal;font-variant-alternates:normal;font-feature-settings:normal;text-indent:0;text-align:start;text-decoration:none;text-decoration-line:none;text-decoration-style:solid;text-decoration-color:#000000;letter-spacing:normal;word-spacing:normal;text-transform:none;writing-mode:lr-tb;direction:ltr;text-orientation:mixed;dominant-baseline:auto;baseline-shift:baseline;text-anchor:start;white-space:normal;shape-padding:0;clip-rule:nonzero;display:inline;overflow:visible;visibility:visible;opacity:1;isolation:auto;mix-blend-mode:normal;color-interpolation:sRGB;color-interpolation-filters:linearRGB;solid-color:#000000;solid-opacity:1;vector-effect:none;fill:#010101;fill-opacity:1;fill-rule:nonzero;stroke:none;stroke-width:16;stroke-linecap:butt;stroke-linejoin:miter;stroke-miterlimit:3.5999999;stroke-dasharray:none;stroke-dashoffset:0;stroke-opacity:1;paint-order:normal;color-rendering:auto;image-rendering:auto;shape-rendering:auto;text-rendering:auto;enable-background:accumulate"
       d="m -144,48 c -26.41491,0 -48,21.585089 -48,48 0,26.41491 21.58509,48 48,48 26.41491,0 48,-21.58509 48,-48 0,-26.414911 -21.58509,-48 -48,-48 z m 0,16 c 17.76787,0 32,14.232131 32,32 0,17.76787 -14.23213,32 -32,32 -17.76787,0 -32,-14.23213 -32,-32 0,-17.767869 14.23213,-32 32,-32 z"
       id="path5068-3"
       inkscape:connector-curvature="0" />
    <path
       style="color:#000000;font-style:normal;font-variant:normal;font-weight:normal;font-stretch:normal;font-size:medium;line-height:normal;font-family:sans-serif;font-variant-ligatures:normal;font-variant-position:normal;font-variant-caps:normal;font-variant-numeric:normal;font-variant-alternates:normal;font-feature-settings:normal;text-indent:0;text-align:start;text-decoration:none;text-decoration-line:none;text-decoration-style:solid;text-decoration-color:#000000;letter-spacing:normal;word-spacing:normal;text-transform:none;writing-mode:lr-tb;direction:ltr;text-orientation:mixed;dominant-baseline:auto;baseline-shift:baseline;text-anchor:start;white-space:normal;shape-padding:0;clip-rule:nonzero;display:inline;overflow:visible;visibility:visible;opacity:1;isolation:auto;mix-blend-mode:normal;color-interpolation:sRGB;color-interpolation-filters:linearRGB;solid-color:#000000;solid-opacity:1;vector-effect:none;fill:#010101;fill-opacity:1;fill-rule:nonzero;stroke:none;stroke-width:16;stroke-linecap:butt;stroke-linejoin:miter;stroke-miterlimit:3.5999999;stroke-dasharray:none;stroke-dashoffset:0;stroke-opacity:1;paint-order:normal;color-rendering:auto;image-rendering:auto;shape-rendering:auto;text-rendering:auto;enable-background:accumulate"
       d="m -144,160 c -13.16008,0 -24,10.83992 -24,24 0,13.16007 10.83992,24 24,24 13.16007,0 24,-10.83993 24,-24 0,-13.16008 -10.83993,-24 -24,-24 z m 0,16 c 4.51303,0 8,3.48696 8,8 0,4.51303 -3.48697,8 -8,8 -4.51304,0 -8,-3.48697 -8,-8 0,-4.51304 3.48696,-8 8,-8 z"
       id="path5098-1"
       inkscape:connector-curvature="0" />
    <path
       inkscape:connector-curvature="0"
       style="color:#000000;font-style:normal;font-variant:normal;font-weight:normal;font-stretch:normal;font-size:medium;line-height:normal;font-family:sans-serif;font-variant-ligatures:normal;font-variant-position:normal;font-variant-caps:normal;font-variant-numeric:normal;font-variant-alternates:normal;font-feature-settings:normal;text-indent:0;text-align:start;text-decoration:none;text-decoration-line:none;text-decoration-style:solid;text-decoration-color:#000000;letter-spacing:normal;word-spacing:normal;text-transform:none;writing-mode:lr-tb;direction:ltr;text-orientation:mixed;dominant-baseline:auto;baseline-shift:baseline;text-anchor:start;white-space:normal;shape-padding:0;clip-rule:nonzero;display:inline;overflow:visible;visibility:visible;opacity:1;isolation:auto;mix-blend-mode:normal;color-interpolation:sRGB;color-interpolation-filters:linearRGB;solid-color:#000000;solid-opacity:1;vector-effect:none;fill:#010101;fill-opacity:1;fill-rule:nonzero;stroke:none;stroke-width:16;stroke-linecap:butt;stroke-linejoin:miter;stroke-miterlimit:3.5999999;stroke-dasharray:none;stroke-dashoffset:0;stroke-opacity:1;paint-order:normal;color-rendering:auto;image-rendering:auto;shape-rendering:auto;text-rendering:auto;enable-background:accumulate"
       d="M 604,-140 V -116 4 C 604,21.76787 589.76787,36 572,36 554.23213,36 540,21.76787 540,4 V -5.37109 H 524 V 4 c 0,26.41491 21.58509,48 48,48 26.41491,0 48,-21.58509 48,-48 v -120 c 0,-4.51304 3.48696,-8 8,-8 4.51303,0 8,3.48696 8,8 V 4 h 16 v -120 c 0,-4.51304 3.48696,-8 8,-8 4.51303,0 8,3.48696 8,8 V 4 h 16 v -120 c 0,-13.16008 -10.83993,-24 -24,-24 -6.12194,0 -11.7399,2.34775 -16,6.18164 -4.2601,-3.83389 -9.87807,-6.18164 -16,-6.18164 -6.12194,0 -11.7399,2.34775 -16,6.18164 V -140 Z"
       id="path5068-1" />
    <path
       inkscape:connector-curvature="0"
       style="color:#000000;font-style:normal;font-variant:normal;font-weight:normal;font-stretch:normal;font-size:medium;line-height:normal;font-family:sans-serif;font-variant-ligatures:normal;font-variant-position:normal;font-variant-caps:normal;font-variant-numeric:normal;font-variant-alternates:normal;font-feature-settings:normal;text-indent:0;text-align:start;text-decoration:none;text-decoration-line:none;text-decoration-style:solid;text-decoration-color:#000000;letter-spacing:normal;word-spacing:normal;text-transform:none;writing-mode:lr-tb;direction:ltr;text-orientation:mixed;dominant-baseline:auto;baseline-shift:baseline;text-anchor:start;white-space:normal;shape-padding:0;clip-rule:nonzero;display:inline;overflow:visible;visibility:visible;opacity:1;isolation:auto;mix-blend-mode:normal;color-interpolation:sRGB;color-interpolation-filters:linearRGB;solid-color:#000000;solid-opacity:1;vector-effect:none;fill:#010101;fill-opacity:1;fill-rule:nonzero;stroke:none;stroke-width:16;stroke-linecap:butt;stroke-linejoin:miter;stroke-miterlimit:3.5999999;stroke-dasharray:none;stroke-dashoffset:0;stroke-opacity:1;paint-order:normal;color-rendering:auto;image-rendering:auto;shape-rendering:auto;text-rendering:auto;enable-background:accumulate"
       d="m 600,-294.18164 v 24 120 h 16 v -120 c 0,-4.51304 3.48696,-8 8,-8 4.51303,0 8,3.48696 8,8 v 120 h 16 v -120 c 0,-4.51304 3.48696,-8 8,-8 4.51303,0 8,3.48696 8,8 v 120 h 16 v -120 c 0,-13.16008 -10.83993,-24 -24,-24 -6.12194,0 -11.7399,2.34775 -16,6.18164 -4.2601,-3.83389 -9.87807,-6.18164 -16,-6.18164 -6.12194,0 -11.7399,2.34775 -16,6.18164 v -6.18164 z"
       id="path5068-2" />
    <path
       style="color:#000000;font-style:normal;font-variant:normal;font-weight:normal;font-stretch:normal;font-size:medium;line-height:normal;font-family:sans-serif;font-variant-ligatures:normal;font-variant-position:normal;font-variant-caps:normal;font-variant-numeric:normal;font-variant-alternates:normal;font-feature-settings:normal;text-indent:0;text-align:start;text-decoration:none;text-decoration-line:none;text-decoration-style:solid;text-decoration-color:#000000;letter-spacing:normal;word-spacing:normal;text-transform:none;writing-mode:lr-tb;direction:ltr;text-orientation:mixed;dominant-baseline:auto;baseline-shift:baseline;text-anchor:start;white-space:normal;shape-padding:0;clip-rule:nonzero;display:inline;overflow:visible;visibility:visible;opacity:1;isolation:auto;mix-blend-mode:normal;color-interpolation:sRGB;color-interpolation-filters:linearRGB;solid-color:#000000;solid-opacity:1;vector-effect:none;fill:#010101;fill-opacity:1;fill-rule:nonzero;stroke:none;stroke-width:16;stroke-linecap:butt;stroke-linejoin:miter;stroke-miterlimit:3.5999999;stroke-dasharray:none;stroke-dashoffset:0;stroke-opacity:1;paint-order:normal;color-rendering:auto;image-rendering:auto;shape-rendering:auto;text-rendering:auto;enable-background:accumulate"
       d="m 606.25397,101.97561 v 24 88 c 0,8.93131 -7.06869,16 -16,16 -8.93131,0 -16,-7.06869 -16,-16 h -16 c 0,17.57835 14.42164,32 32,32 17.57835,0 32,-14.42165 32,-32 v -88 c 0,-4.51304 3.48696,-8 8,-8 4.51303,0 8,3.48696 8,8 v 88 h 16 v -88 c 0,-4.51304 3.48696,-8 8,-8 4.51303,0 8,3.48696 8,8 v 88 h 16 v -88 c 0,-13.16008 -10.83993,-24 -24,-24 -6.12194,0 -11.7399,2.34776 -16,6.18164 -4.2601,-3.83388 -9.87807,-6.18164 -16,-6.18164 -6.12194,0 -11.7399,2.34776 -16,6.18164 v -6.18164 z"
       id="path5068-7"
       inkscape:connector-curvature="0" />
  </g>
</svg>
