<?xml version="1.0" encoding="UTF-8" standalone="no"?>
<!-- Created with Inkscape (http://www.inkscape.org/) -->

<svg
   xmlns:dc="http://purl.org/dc/elements/1.1/"
   xmlns:cc="http://creativecommons.org/ns#"
   xmlns:rdf="http://www.w3.org/1999/02/22-rdf-syntax-ns#"
   xmlns:svg="http://www.w3.org/2000/svg"
   xmlns="http://www.w3.org/2000/svg"
   xmlns:sodipodi="http://sodipodi.sourceforge.net/DTD/sodipodi-0.dtd"
   xmlns:inkscape="http://www.inkscape.org/namespaces/inkscape"
   width="558"
   height="456"
   viewBox="0 0 558 456"
   version="1.1"
   id="SVGRoot"
   inkscape:version="0.92.0 r15299"
   sodipodi:docname="jm logo 3 -- music - text_to_path.svg"
   inkscape:export-filename="C:\Users\jmath\Documents\Inkscape SVGs\jm logo 3 + text.png"
   inkscape:export-xdpi="96"
   inkscape:export-ydpi="96">
  <sodipodi:namedview
     id="base"
     pagecolor="#ffffff"
     bordercolor="#666666"
     borderopacity="1.0"
     inkscape:pageopacity="0.0"
     inkscape:pageshadow="2"
     inkscape:zoom="0.5"
     inkscape:cx="395.87784"
     inkscape:cy="228"
     inkscape:document-units="px"
     inkscape:current-layer="text5001-5-2"
     showgrid="false"
     inkscape:window-width="1366"
     inkscape:window-height="705"
     inkscape:window-x="-8"
     inkscape:window-y="-8"
     inkscape:window-maximized="1"
     inkscape:grid-bbox="true"
     inkscape:measure-start="1155.74,-1177.8"
     inkscape:measure-end="1108.62,-1177.8">
    <inkscape:grid
       type="xygrid"
       id="grid5066" />
  </sodipodi:namedview>
  <defs
     id="defs4485" />
  <metadata
     id="metadata4488">
    <rdf:RDF>
      <cc:Work
         rdf:about="">
        <dc:format>image/svg+xml</dc:format>
        <dc:type
           rdf:resource="http://purl.org/dc/dcmitype/StillImage" />
        <dc:title></dc:title>
      </cc:Work>
    </rdf:RDF>
  </metadata>
  <g
     id="layer1"
     inkscape:groupmode="layer"
     inkscape:label="Layer 1"
     transform="translate(0,200)">
    <g
       aria-label="usic"
       style="font-style:normal;font-variant:normal;font-weight:normal;font-stretch:normal;font-size:53.33333206px;line-height:1.00000036px;font-family:Perpetua;-inkscape-font-specification:Perpetua;letter-spacing:0px;word-spacing:0px;writing-mode:lr-tb;fill:#000000;fill-opacity:1;stroke:none"
       id="text5001-5-2">
      <g
         id="g5130">
        <path
           inkscape:export-ydpi="96"
           inkscape:export-xdpi="96"
           inkscape:export-filename="C:\Users\jmath\Pictures\music-sec-comp 2.png"
           inkscape:connector-curvature="0"
           id="path4686-0"
           d="m 63.1192,-184.07617 v 64 6.67969 259.1582 c 0,26.30177 -20.8176,47.1181 -47.1191,47.11914 V 240 c 51.7669,-0.001 94.2382,-42.47114 94.2382,-94.23828 v -259.1582 c 0,-13.29076 10.2678,-23.5586 23.5586,-23.5586 13.2907,0 23.5606,10.26784 23.5606,23.5586 v 259.1582 h 47.1191 v -259.1582 c 0,-13.29076 10.2698,-23.5586 23.5606,-23.5586 13.2908,0 23.5605,10.26784 23.5605,23.5586 v 259.1582 h 47.1192 v -259.1582 c 0,-38.75604 -31.9236,-70.67969 -70.6797,-70.67969 -18.0289,0 -34.5734,6.9144 -47.1192,18.20508 -12.5459,-11.29069 -29.0922,-18.20508 -47.1211,-18.20508 -18.0289,0 -34.5732,6.9144 -47.1191,18.20508 l -5.957,5.26367 z"
           style="color:#000000;font-style:normal;font-variant:normal;font-weight:normal;font-stretch:normal;font-size:medium;line-height:normal;font-family:sans-serif;font-variant-ligatures:normal;font-variant-position:normal;font-variant-caps:normal;font-variant-numeric:normal;font-variant-alternates:normal;font-feature-settings:normal;text-indent:0;text-align:start;text-decoration:none;text-decoration-line:none;text-decoration-style:solid;text-decoration-color:#000000;letter-spacing:normal;word-spacing:normal;text-transform:none;writing-mode:lr-tb;direction:ltr;text-orientation:mixed;dominant-baseline:auto;baseline-shift:baseline;text-anchor:start;white-space:normal;shape-padding:0;clip-rule:nonzero;display:inline;overflow:visible;visibility:visible;opacity:1;isolation:auto;mix-blend-mode:normal;color-interpolation:sRGB;color-interpolation-filters:linearRGB;solid-color:#000000;solid-opacity:1;vector-effect:none;fill:#010101;fill-opacity:1;fill-rule:nonzero;stroke:none;stroke-width:47.11956406;stroke-linecap:butt;stroke-linejoin:miter;stroke-miterlimit:3.5999999;stroke-dasharray:none;stroke-dashoffset:0;stroke-opacity:1;paint-order:normal;color-rendering:auto;image-rendering:auto;shape-rendering:auto;text-rendering:auto;enable-background:accumulate" />
        <g
           id="g5121">
          <path
             d="m 371.36639,-0.57289505 h 1.59375 V 27.927105 q 0,2.8125 1.17188,3.796875 1.21875,0.984375 4.6875,0.984375 v 1.640625 l -12.375,0.65625 v -6.234375 h -0.1875 q -5.10938,6.65625 -11.90625,6.65625 -4.875,0 -8.01563,-3.234375 -3.09375,-3.28125 -3.09375,-8.203125 V 6.5989799 q 0,-2.625 -1.3125,-3.5625 -1.3125,-0.9375 -4.73437,-0.9375 V 0.45835495 l 10.92187,-1.03125 h 1.64063 V 23.708355 q 0,3.5625 2.0625,5.625 2.10937,2.0625 5.625,2.0625 4.875,0 9,-5.578125 V 7.4896049 q 0,-3.515625 -1.07813,-4.40625 -1.07812,-0.890625 -5.53125,-0.984375 V 0.45835495 Z"
             style="font-style:normal;font-variant:normal;font-weight:normal;font-stretch:normal;font-size:96px;font-family:Perpetua;-inkscape-font-specification:Perpetua;letter-spacing:24.88999939px;writing-mode:lr-tb"
             id="path5108" />
          <path
             d="M 430.14702,-0.57289505 V 9.8802299 h -1.92188 q -0.46875,-3.9375 -2.8125,-6.234375 -2.34375,-2.34375 -5.67187,-2.34375 -2.53125,0 -4.07813,1.265625 -1.54687,1.265625 -1.54687,3.375 0,2.0625 1.40625,3.65625 1.45312,1.5468751 6.23437,3.7500001 6.1875,2.8125 8.15625,5.390625 2.01563,2.578125 2.01563,6.1875 0,4.265625 -3.1875,7.40625 -3.1875,3.09375 -7.54688,3.09375 -2.25,0 -5.95312,-1.640625 -2.01563,-0.890625 -2.67188,-0.890625 -0.89062,0 -1.5,0.65625 -0.60937,0.65625 -0.70312,1.640625 h -1.64063 V 23.614605 h 1.64063 q 0.89062,4.546875 3.9375,7.21875 3.04687,2.671875 6.98437,2.671875 2.53125,0 4.21875,-1.6875 1.73438,-1.6875 1.73438,-4.171875 0,-2.390625 -1.59375,-4.125 -1.54688,-1.78125 -6.79688,-4.078125 -5.90625,-2.578125 -7.78125,-4.828125 -1.875,-2.25 -1.875,-5.4375001 0,-3.984375 3.04688,-6.84375 3.09375,-2.90624995 7.3125,-2.90624995 1.96875,0 4.26562,0.9375 1.64063,0.65624995 2.67188,0.65624995 1.35937,0 2.01562,-1.59374995 z"
             style="font-style:normal;font-variant:normal;font-weight:normal;font-stretch:normal;font-size:96px;font-family:Perpetua;-inkscape-font-specification:Perpetua;letter-spacing:24.88999939px;writing-mode:lr-tb"
             id="path5110" />
          <path
             d="m 472.52139,-0.57289505 h 1.64063 V 28.020855 q 0,2.8125 1.21875,3.75 1.21875,0.9375 4.45312,0.9375 v 1.640625 h -18.60937 v -1.640625 q 4.07812,0 5.25,-0.890625 1.17187,-0.9375 1.17187,-3.796875 V 7.1614799 q 0,-3.09375 -1.07812,-4.078125 -1.07813,-0.984375 -5.34375,-0.984375 V 0.45835495 Z m -1.5,-17.57812495 q 1.73438,0 2.90625,1.21875 1.21875,1.171875 1.21875,2.90625 0,1.734375 -1.21875,3 -1.21875,1.2187499 -2.90625,1.2187499 -1.73437,0 -3,-1.2187499 -1.26562,-1.265625 -1.26562,-3 0,-1.734375 1.21875,-2.90625 1.26562,-1.21875 3.04687,-1.21875 z"
             style="font-style:normal;font-variant:normal;font-weight:normal;font-stretch:normal;font-size:96px;font-family:Perpetua;-inkscape-font-specification:Perpetua;letter-spacing:24.88999939px;writing-mode:lr-tb"
             id="path5112" />
          <path
             d="M 541.14577,-0.57289505 V 11.427105 h -1.64063 q -1.07812,-4.6875001 -4.125,-7.4062501 -3.04687,-2.71875 -7.26562,-2.71875 -5.0625,0 -8.25,3.9375 -3.1875,3.9375 -3.1875,10.2187501 0,6.9375 3.75,12 3.79687,5.0625 9,5.0625 3.46875,0 6.84375,-1.875 3.42187,-1.875 5.85937,-5.203125 v 2.484375 q -5.53125,7.5 -15,7.5 -7.54687,0 -12.32812,-4.78125 -4.73438,-4.78125 -4.73438,-12.421875 0,-7.828125 5.10938,-13.3125001 5.15625,-5.48437495 12.42187,-5.48437495 3.23438,0 7.21875,1.3125 1.73438,0.56249995 2.39063,0.56249995 1.45312,0 2.29687,-1.87499995 z"
             style="font-style:normal;font-variant:normal;font-weight:normal;font-stretch:normal;font-size:96px;font-family:Perpetua;-inkscape-font-specification:Perpetua;letter-spacing:24.88999939px;writing-mode:lr-tb"
             id="path5114" />
        </g>
      </g>
    </g>
    <text
       xml:space="preserve"
       style="font-style:normal;font-variant:normal;font-weight:normal;font-stretch:normal;font-size:53.33333206px;line-height:1.00000036px;font-family:Montserrat;-inkscape-font-specification:Montserrat;letter-spacing:0px;word-spacing:0px;fill:#000000;fill-opacity:1;stroke:none"
       x="688"
       y="105"
       id="text5005"><tspan
         sodipodi:role="line"
         id="tspan5003"
         x="688"
         y="121.18499" /></text>
  </g>
</svg>
