<?xml version="1.0" ?><svg viewBox="0 0 23.97 23.97" xmlns="http://www.w3.org/2000/svg"><title/><g data-name="Layer 2" id="Layer_2"><g id="Icon"><path d="M17.45,12.7a32,32,0,0,1,4.05,6.57A11.84,11.84,0,0,0,24,11.59,10.83,10.83,0,0,0,17.45,12.7Z"/><path d="M.33,14.78a12,12,0,0,0,9.21,9,13,13,0,0,1,4.94-11.49c-1.15-1.31-1.75-1.88-2.32-2.43A12.93,12.93,0,0,1,.33,14.78Z"/><path d="M5.07,2.19a34.76,34.76,0,0,1,6.67,4.56,10.83,10.83,0,0,0,1-6.73A11.88,11.88,0,0,0,5.07,2.19Z"/><path d="M0,12.72A10.93,10.93,0,0,0,10.68,8.47,32.51,32.51,0,0,0,3.4,3.61,11.9,11.9,0,0,0,0,12.72Z"/><path d="M11.59,24A11.92,11.92,0,0,0,20,20.89a30.13,30.13,0,0,0-4.26-7.1A10.91,10.91,0,0,0,11.59,24Z"/><path d="M13.28,8.14a33.06,33.06,0,0,1,2.87,3,13,13,0,0,1,7.59-1.59,12,12,0,0,0-9-9.21A12.81,12.81,0,0,1,13.28,8.14Z"/></g></g></svg>