<?xml version="1.0" ?><svg viewBox="0 0 24 24" xmlns="http://www.w3.org/2000/svg"><title/><g data-name="Layer 2" id="Layer_2"><g id="Icon"><path d="M6.12,8.49v2.94c1.74,0,3.69.26,3.69-1.48S7.91,8.46,6.12,8.49Z"/><path d="M20,0H4A4,4,0,0,0,0,4V20a4,4,0,0,0,4,4H20a4,4,0,0,0,4-4V4A4,4,0,0,0,20,0ZM6.12,13.19v3.9H4V6.74C8.29,6.79,12,6,12,9.92,12,13.53,8.87,13.07,6.12,13.19Zm10.44,4.07c-2.17,0-3.26-1-3.6-2.31l2-.3a1.45,1.45,0,0,0,1.61,1.18c.64,0,1.41-.17,1.41-.82,0-1.21-4.73-.37-4.73-3.29,0-1.19.87-2.3,3.15-2.3,1.65,0,2.86.4,3.32,2l-1.87.34c-.18-.67-.7-.9-1.41-.9-.54,0-1.35.08-1.35.62,0,1.21,4.89.37,4.89,3.28C20,16,18.93,17.26,16.56,17.26Z"/></g></g></svg>