<?xml version="1.0" ?><svg viewBox="0 0 24 22.94" xmlns="http://www.w3.org/2000/svg"><title/><g data-name="Layer 2" id="Layer_2"><g id="Icon"><path d="M12,0C5.37,0,0,4.48,0,10c0,5.19,4.76,9.47,10.84,10,.11-.2-1.68,2.89-1.74,3C16.19,19.53,24,17.4,24,10,24,4.48,18.63,0,12,0ZM7.33,12.54H4.91c-.44,0-.62-.18-.62-.61V8.12c0-.42.22-.61.5-.61s.5.19.5.61v3.6h2c.34,0,.5.19.5.41S7.67,12.54,7.33,12.54ZM9.53,12c0,.42-.22.61-.51.61s-.49-.2-.49-.61V8.12c0-.42.21-.61.49-.61s.51.19.51.61Zm5.27,0c0,.43-.18.65-.54.65a.71.71,0,0,1-.62-.36c-.23-.33-.31-.47-2-3.11v2.89c0,.4-.21.58-.47.58s-.47-.17-.47-.58V8.24c0-.5.25-.73.59-.73s.49.27.7.6L13.88,11V8.09c0-.41.2-.58.45-.58s.47.17.47.58Zm4.43.56H16.51c-.43,0-.61-.18-.61-.61V8.21c0-.43.18-.61.61-.61h2.64c.33,0,.48.16.48.38s-.15.39-.48.39H16.9V9.58H19c.31,0,.45.16.45.38s-.14.38-.45.38H16.9v1.41h2.33c.33,0,.48.17.48.4S19.56,12.54,19.23,12.54Z"/></g></g></svg>