<?xml version="1.0" ?><svg viewBox="0 0 24 24" xmlns="http://www.w3.org/2000/svg"><title/><g data-name="Layer 2" id="Layer_2"><g id="Icon"><path d="M23.91,10.59a13.6,13.6,0,0,1-2.09,3.33A10,10,0,1,1,12,2c.67,0,1.33,0,2,0,1.14-.26,2.16-.55,3.07-.85a12,12,0,1,0,6.84,9.47Z"/><path d="M24,0c0,.5-.08,17.58-11.33,14.65-1.82-.48-3.16,1.69-4.68,2.8a1.06,1.06,0,0,1-1-1.22,12.82,12.82,0,0,1,3.35-2.6h0a19.82,19.82,0,0,0,10.31-8C18,8.55,11,12.64,9.6,12.87c-2.38-3-1-7.93,2.21-8.44C19.93,3.14,24,0,24,0Z"/></g></g></svg>